<svg width="177" height="71" viewBox="0 0 177 71" fill="none" xmlns="http://www.w3.org/2000/svg">
<path d="M72.4055 14.9295C72.4055 14.9295 72.0631 15.0661 71.3782 15.3391C70.6933 15.6122 70.0091 15.9551 69.3255 16.3681C68.642 16.781 68.0593 17.2317 67.5774 17.7202C67.0956 18.2086 66.6485 18.7603 66.2361 19.3751C65.8238 19.9899 65.4516 20.5755 65.1196 21.1321C64.7876 21.6886 64.4551 22.3312 64.1222 23.0597C63.7893 23.7882 63.5587 24.5493 63.4305 25.3431C63.3023 26.1368 63.2297 26.9945 63.2129 27.916C63.196 28.8376 63.1829 29.7815 63.1737 30.7479C63.1645 31.7142 63.2468 32.627 63.4205 33.4861C63.5942 34.3453 63.7447 35.0995 63.872 35.7489C63.9992 36.3983 64.1337 37.0619 64.2754 37.7398C64.4171 38.4177 64.5789 39.1245 64.7607 39.86C64.9424 40.5956 65.1752 41.2741 65.459 41.8955C65.7428 42.5169 66.0399 43.1576 66.3505 43.8177C66.661 44.4777 66.9895 45.0799 67.3359 45.6245C67.6823 46.169 68.0453 46.7545 68.4249 47.3811C68.8044 48.0077 69.2019 48.6148 69.6173 49.2025C70.0327 49.7901 70.4347 50.3923 70.8234 51.009C71.2121 51.6257 71.5758 52.2011 71.9146 52.7352C72.2534 53.2692 72.7281 53.9697 73.3386 54.8365C73.9491 55.7034 74.523 56.3565 75.0603 56.7959C75.5975 57.2352 76.2698 57.6911 77.0771 58.1636C77.8844 58.6361 78.7394 58.9793 79.6422 59.1931C80.545 59.4069 81.6278 59.5925 82.8906 59.7498C84.1535 59.9071 85.3637 59.9252 86.5213 59.8041C87.6789 59.683 88.8191 59.4883 89.9418 59.22C91.0645 58.9516 92.1018 58.6295 93.0536 58.2537C94.0054 57.8778 94.9915 57.4349 96.0121 56.925C97.0326 56.415 97.9201 55.8782 98.6745 55.3146C99.4289 54.751 100.2 54.1668 100.987 53.5621C101.775 52.9574 102.474 52.348 103.086 51.7338C103.697 51.1197 104.302 50.4364 104.902 49.684C105.501 48.9316 106.07 48.1554 106.609 47.3554C107.148 46.5555 107.558 45.8095 107.841 45.1176C108.123 44.4256 108.406 43.6446 108.691 42.7746C108.975 41.9046 109.231 40.9818 109.457 40.0062C109.683 39.0307 109.874 38.228 110.03 37.5981C110.186 36.9683 110.321 36.216 110.435 35.3412C110.549 34.4665 110.615 33.5726 110.632 32.6597C110.65 31.7467 110.658 30.8631 110.655 30.0088C110.653 29.1544 110.526 28.2942 110.275 27.4279C110.024 26.5617 109.691 25.7209 109.276 24.9056C108.861 24.0903 108.474 23.3751 108.113 22.7601C107.753 22.1451 107.374 21.5948 106.975 21.1093C106.576 20.6237 106.1 20.1222 105.549 19.6046C104.997 19.087 104.446 18.6367 103.897 18.2536C103.348 17.8705 102.709 17.4625 101.978 17.0295C101.248 16.5966 100.544 16.1597 99.8645 15.719C99.1852 15.2783 98.4845 14.9039 97.7623 14.5959C97.04 14.2879 96.3019 14.0213 95.5479 13.7959C94.7939 13.5706 94.0027 13.3324 93.1744 13.0815C92.3461 12.8305 91.6035 12.6605 90.9466 12.5715C90.2897 12.4826 89.5918 12.3452 88.8528 12.1595C88.1139 11.9738 87.3437 11.8709 86.5423 11.8509C85.7409 11.8309 84.9117 11.8236 84.0545 11.8289C83.1974 11.8342 82.3866 11.8434 81.6223 11.8564C80.858 11.8694 80.1645 11.9771 79.5418 12.1794C78.9191 12.3818 78.3056 12.6064 77.7014 12.8532C77.0971 13.1 76.5391 13.4258 76.0274 13.8305C75.5157 14.2353 75.1454 14.5011 74.9165 14.6281C74.6876 14.7551 74.4444 14.8422 74.187 14.8895C73.9295 14.9368 73.6712 14.9417 73.4121 14.9043C73.153 14.8668 72.9067 14.789 72.6731 14.6708C72.4396 14.5526 72.231 14.4002 72.0474 14.2136C71.8638 14.027 71.7148 13.816 71.6003 13.5806C71.4859 13.3451 71.4121 13.0976 71.3789 12.8379C71.3456 12.5783 71.3547 12.3201 71.4061 12.0634C71.4575 11.8067 71.5486 11.565 71.6793 11.3382C71.81 11.1113 71.9734 10.9113 72.1697 10.7381C72.366 10.5649 72.5848 10.4275 72.8261 10.326C73.0674 10.2246 73.3186 10.1643 73.5796 10.1451C73.8407 10.126 74.098 10.1491 74.3515 10.2143C74.605 10.2796 74.8415 10.3836 75.0609 10.5264C75.2803 10.6692 75.4712 10.8432 75.6335 11.0486C75.7958 11.254 75.9211 11.4799 76.0094 11.7263C76.0976 11.9728 76.1442 12.2269 76.1492 12.4886C76.1541 12.7503 76.1171 13.006 76.0383 13.2556C75.9594 13.5052 75.8427 13.7357 75.6882 13.947C75.5338 14.1584 75.3496 14.3395 75.1358 14.4905C74.9219 14.6414 74.6895 14.7543 74.4387 14.8291C74.1878 14.9039 73.9315 14.9366 73.6699 14.9274C73.4083 14.9181 73.155 14.8673 72.9101 14.775C72.6651 14.6827 72.4413 14.5538 72.2386 14.3881C72.036 14.2224 71.8651 14.0287 71.7259 13.8069C71.5868 13.5852 71.4866 13.3471 71.4256 13.0925C71.3645 12.838 71.3457 12.5803 71.3691 12.3196C71.3925 12.0589 71.4569 11.8087 71.5624 11.5691C71.6678 11.3295 71.8087 11.113 71.9852 10.9196C72.1616 10.7262 72.2497 10.6296 72.2495 10.6298C72.2493 10.6299 72.3423 10.5705 72.5283 10.4516C72.7144 10.3327 73.1 10.0794 73.6852 9.69173C74.2703 9.30406 75.0189 8.92436 75.9309 8.55261C76.8429 8.18086 77.6624 7.90615 78.3892 7.72849C79.1161 7.55082 79.8317 7.43873 80.5362 7.39222C81.2406 7.34571 81.942 7.32741 82.6403 7.33733C83.3386 7.34725 84.1311 7.36035 85.0176 7.37663C85.9042 7.39291 86.6965 7.4255 87.3947 7.47441C88.0928 7.52332 88.8174 7.64295 89.5682 7.8333C90.3191 8.02365 91.1048 8.18484 91.9254 8.31687C92.7459 8.44891 93.5601 8.63502 94.3679 8.8752C95.1757 9.11539 95.9798 9.3539 96.7803 9.59073C97.5808 9.82755 98.3537 10.0969 99.099 10.3987C99.8443 10.7005 100.547 11.0527 101.207 11.4553C101.868 11.8578 102.52 12.2763 103.165 12.7108C103.81 13.1453 104.549 13.6145 105.38 14.1184C106.211 14.6224 106.943 15.1459 107.575 15.689C108.207 16.2321 108.843 16.838 109.483 17.5065C110.124 18.1751 110.674 18.8541 111.133 19.5436C111.592 20.2331 112.006 20.9204 112.375 21.6053C112.744 22.2902 113.103 23.0626 113.454 23.9225C113.804 24.7823 114.066 25.5568 114.239 26.246C114.412 26.9352 114.535 27.7147 114.607 28.5845C114.68 29.4543 114.709 30.3701 114.693 31.332C114.678 32.2939 114.634 33.3213 114.561 34.4143C114.489 35.5073 114.339 36.5582 114.113 37.567C113.886 38.5758 113.724 39.415 113.627 40.0844C113.53 40.7539 113.314 41.5957 112.979 42.6097C112.644 43.6238 112.321 44.572 112.008 45.4544C111.695 46.3368 111.252 47.2608 110.679 48.2263C110.105 49.1918 109.504 50.0945 108.876 50.9344C108.248 51.7743 107.57 52.6059 106.843 53.4291C106.116 54.2524 105.336 55.0104 104.501 55.7032C103.667 56.396 102.843 57.0355 102.028 57.6216C101.213 58.2077 100.294 58.7911 99.2712 59.3716C98.2479 59.9522 97.1638 60.5005 96.0189 61.0166C94.874 61.5327 93.7216 61.9665 92.5618 62.318C91.402 62.6695 90.4807 62.9238 89.798 63.0807C89.1152 63.2377 88.4306 63.3643 87.7439 63.4604C87.0572 63.5566 86.3325 63.6267 85.5696 63.6709C84.8068 63.7151 84.0519 63.7061 83.3051 63.6439C82.5583 63.5817 81.8677 63.508 81.2334 63.4226C80.599 63.3373 79.9526 63.2294 79.2941 63.0992C78.6356 62.9689 78.0043 62.7961 77.4002 62.581C76.7961 62.3658 76.0114 61.961 75.0463 61.3666C74.0812 60.7723 73.1928 60.0826 72.3811 59.2975C71.5694 58.5125 70.8677 57.6736 70.2761 56.7808C69.6845 55.888 69.2225 55.174 68.8901 54.6389C68.5577 54.1038 68.2169 53.5599 67.8678 53.0072C67.5186 52.4545 67.1044 51.8534 66.6252 51.2041C66.1459 50.5548 65.7167 49.9295 65.3375 49.3282C64.9583 48.727 64.554 48.0956 64.1248 47.4341C63.6956 46.7725 63.3128 46.1102 62.9763 45.4469C62.6399 44.7837 62.2731 44.0475 61.8759 43.2382C61.4787 42.4289 61.1589 41.6345 60.9165 40.8549C60.674 40.0753 60.4611 39.3358 60.2778 38.6363C60.0945 37.9368 59.8564 37.0014 59.5635 35.8302C59.2707 34.6589 59.081 33.5139 58.9945 32.3952C58.908 31.2765 58.8649 30.2373 58.8652 29.2775C58.8656 28.3177 58.8913 27.4903 58.9425 26.795C58.9936 26.0998 59.0743 25.4309 59.1844 24.7881C59.2945 24.1454 59.4726 23.4593 59.7189 22.7299C59.9652 22.0004 60.2527 21.3491 60.5816 20.776C60.9104 20.2029 61.2555 19.6401 61.6169 19.0877C61.9783 18.5353 62.4616 17.838 63.0668 16.9957C63.6721 16.1533 64.3234 15.4125 65.0208 14.773C65.7182 14.1336 66.5344 13.5512 67.4695 13.0258C68.4046 12.5004 69.2092 12.0881 69.8832 11.789C70.5572 11.4899 70.9695 11.3189 71.12 11.276C71.2704 11.2331 71.4239 11.2088 71.5803 11.2032C71.7366 11.1975 71.8914 11.2107 72.0446 11.2426C72.1978 11.2746 72.3449 11.3244 72.486 11.3921C72.6271 11.4598 72.758 11.5434 72.8788 11.6429C72.9996 11.7423 73.1067 11.8548 73.2002 11.9803C73.2936 12.1058 73.3707 12.2407 73.4314 12.3849C73.4922 12.5291 73.5347 12.6785 73.5592 12.8331C73.5836 12.9876 73.5892 13.1429 73.5759 13.2988C73.5627 13.4547 73.5309 13.6068 73.4807 13.755C73.4305 13.9032 73.3633 14.0432 73.2791 14.1751C73.1949 14.307 73.0962 14.4269 72.9829 14.5348C72.8695 14.6427 72.7449 14.7355 72.6091 14.8131C72.4732 14.8908 72.4054 14.9296 72.4055 14.9295Z" fill="#121212"/>
<path d="M72.7383 27.049C72.7383 27.049 72.67 27.2465 72.5334 27.6414C72.3967 28.0363 72.6408 28.4834 73.2655 28.9827C73.8902 29.4821 73.8789 29.5412 73.2315 29.1602C72.5841 28.7791 72.1349 28.5125 71.8838 28.3605C71.6327 28.2084 71.4073 28.0519 71.2076 27.8909C71.0079 27.73 70.8391 27.5413 70.7013 27.3251C70.5635 27.1088 70.4638 26.8761 70.4022 26.6271C70.3406 26.3782 70.3204 26.1259 70.3416 25.8703C70.3628 25.6147 70.4242 25.3691 70.5259 25.1337C70.6276 24.8982 70.7642 24.6852 70.9357 24.4945C71.1072 24.3038 71.3047 24.1455 71.5282 24.0196C71.7516 23.8937 71.9893 23.8068 72.2413 23.7588C72.4932 23.7108 72.7462 23.7043 73.0003 23.7393C73.2544 23.7743 73.4962 23.8489 73.7258 23.9632C73.9554 24.0775 74.1608 24.2254 74.3419 24.4071C74.523 24.5887 74.6703 24.7945 74.784 25.0244C74.8976 25.2543 74.9715 25.4964 75.0058 25.7506C75.04 26.0048 75.0328 26.2577 74.9841 26.5096C74.9354 26.7614 74.8477 26.9988 74.7212 27.2219C74.5946 27.445 74.4358 27.642 74.2446 27.813C74.0534 27.984 73.84 28.12 73.6042 28.2209C73.3685 28.3219 73.1227 28.3826 72.8671 28.4031C72.6114 28.4235 72.3592 28.4026 72.1104 28.3403C71.8616 28.278 71.6292 28.1776 71.4133 28.0392C71.1975 27.9007 71.0093 27.7314 70.849 27.5313C70.6886 27.3311 70.5644 27.1106 70.4763 26.8697C70.3882 26.6288 70.3409 26.3802 70.3344 26.1238C70.3278 25.8674 70.3624 25.6167 70.4381 25.3716C70.5137 25.1266 70.6265 24.9 70.7765 24.6919C70.9265 24.4839 71.1057 24.3052 71.3143 24.1559C71.5228 24.0066 71.7497 23.8945 71.995 23.8196C72.2403 23.7447 72.4912 23.711 72.7476 23.7183C73.0039 23.7257 73.2524 23.7738 73.493 23.8626C73.7336 23.9515 73.8538 23.9958 73.8536 23.9957C73.8534 23.9956 74.0209 24.115 74.356 24.354C74.6912 24.5929 75.0816 24.9312 75.5271 25.3689C75.9727 25.8065 76.3821 26.2978 76.7552 26.8429C77.1284 27.3879 77.2648 28.0006 77.1644 28.6809C77.064 29.3612 76.8139 30.0062 76.414 30.6158C76.014 31.2255 75.5335 31.7481 74.9723 32.1838C74.4112 32.6196 73.7871 32.9305 73.1 33.1168C72.4129 33.303 71.7062 33.3147 70.98 33.1519C70.2537 32.9891 69.6484 32.644 69.1641 32.1165C68.6797 31.589 68.3896 30.9806 68.2938 30.2912C68.198 29.6018 68.2284 28.8626 68.3853 28.0736C68.5421 27.2846 68.6952 26.6942 68.8447 26.3024C68.9941 25.9106 69.1043 25.6447 69.1753 25.5048C69.2463 25.3649 69.333 25.2355 69.4354 25.1167C69.5379 24.9978 69.653 24.893 69.7809 24.8021C69.9088 24.7112 70.0457 24.6369 70.1916 24.5793C70.3375 24.5217 70.4882 24.4823 70.6437 24.4613C70.7991 24.4402 70.9549 24.4381 71.1108 24.4549C71.2668 24.4717 71.4185 24.5069 71.566 24.5605C71.7134 24.6141 71.8523 24.6846 71.9826 24.772C72.1129 24.8593 72.2309 24.961 72.3365 25.077C72.4422 25.193 72.5324 25.3199 72.6072 25.4578C72.682 25.5958 72.7392 25.7406 72.7788 25.8924C72.8184 26.0442 72.8393 26.1985 72.8414 26.3554C72.8436 26.5123 72.8269 26.6671 72.7914 26.82C72.756 26.9728 72.7383 27.0491 72.7383 27.049Z" fill="#121212"/>
<path d="M98.5984 25.9037C98.5984 25.9037 98.476 26.0317 98.2312 26.2876C97.9864 26.5434 97.8529 27.0388 97.8306 27.7736C97.8083 28.5084 98.097 28.6033 98.6966 28.0583C99.2962 27.5132 99.4717 27.1945 99.2229 27.1021C98.9742 27.0098 98.7215 26.9332 98.465 26.8726C98.2084 26.8119 97.9682 26.7118 97.7445 26.5724C97.5207 26.433 97.3251 26.2615 97.1576 26.0579C96.9901 25.8544 96.8594 25.6294 96.7657 25.383C96.6719 25.1366 96.62 24.8816 96.6098 24.6182C96.5996 24.3548 96.6318 24.0966 96.7063 23.8437C96.7808 23.5908 96.8937 23.3564 97.045 23.1406C97.1964 22.9247 97.3782 22.7386 97.5906 22.5824C97.8029 22.4262 98.0347 22.3079 98.2858 22.2276C98.5369 22.1474 98.7943 22.1093 99.0579 22.1134C99.3215 22.1176 99.5775 22.1637 99.826 22.2518C100.074 22.3398 100.302 22.4653 100.51 22.6281C100.717 22.7909 100.893 22.9826 101.038 23.2031C101.182 23.4236 101.288 23.6614 101.354 23.9165C101.421 24.1716 101.445 24.4306 101.426 24.6936C101.408 24.9566 101.348 25.2098 101.247 25.4531C101.145 25.6965 101.008 25.9173 100.834 26.1155C100.66 26.3137 100.459 26.479 100.231 26.6114C100.003 26.7437 99.7598 26.8362 99.5014 26.8888C99.2431 26.9414 98.9831 26.9514 98.7215 26.9188C98.4599 26.8861 98.2104 26.8126 97.9729 26.6981C97.7354 26.5837 97.5224 26.4343 97.3339 26.25C97.1454 26.0657 96.9912 25.8561 96.8714 25.6213C96.7516 25.3864 96.6724 25.1386 96.6339 24.8778C96.5954 24.617 96.5995 24.3569 96.6463 24.0974C96.693 23.8379 96.78 23.5927 96.9071 23.3618C97.0343 23.1309 97.195 22.9263 97.3892 22.748C97.5835 22.5698 97.8011 22.4272 98.0421 22.3203C98.2831 22.2134 98.5348 22.1478 98.7974 22.1235C99.0599 22.0991 99.191 22.0869 99.1908 22.0869C99.1905 22.0869 99.4035 22.1632 99.8298 22.3159C100.256 22.4686 100.823 22.6909 101.53 22.983C102.237 23.2752 102.84 23.7673 103.338 24.4595C103.836 25.1517 104.128 25.9543 104.216 26.8671C104.303 27.78 104.16 28.5635 103.785 29.2176C103.411 29.8717 102.962 30.3889 102.439 30.7693C101.917 31.1497 101.379 31.5343 100.826 31.9233C100.274 32.3122 99.6877 32.5412 99.0683 32.6102C98.449 32.6792 97.8272 32.6762 97.2031 32.6013C96.5789 32.5265 95.9148 32.1898 95.2105 31.5913C94.5063 30.9928 94.039 30.1843 93.8086 29.1657C93.5783 28.1472 93.5224 27.2956 93.6411 26.6109C93.7598 25.9261 94.0252 25.297 94.4373 24.7233C94.8495 24.1497 95.1835 23.7405 95.4393 23.4957C95.6952 23.2509 95.8852 23.0799 96.0094 22.9826C96.1335 22.8854 96.2675 22.8044 96.4113 22.7397C96.5551 22.675 96.7045 22.6284 96.8597 22.6C97.0148 22.5716 97.171 22.5621 97.3284 22.5716C97.4858 22.5812 97.6398 22.6094 97.7904 22.6563C97.9409 22.7032 98.0837 22.7675 98.2187 22.8491C98.3536 22.9307 98.4768 23.0272 98.5883 23.1387C98.6998 23.2502 98.7964 23.3735 98.8779 23.5084C98.9595 23.6434 99.0238 23.7861 99.0707 23.9367C99.1176 24.0873 99.1458 24.2413 99.1553 24.3987C99.1648 24.5561 99.1553 24.7123 99.1269 24.8674C99.0985 25.0226 99.0519 25.172 98.9871 25.3158C98.9224 25.4596 98.8414 25.5936 98.7441 25.7177C98.6469 25.8418 98.5983 25.9038 98.5984 25.9037Z" fill="#121212"/>
<path d="M76.9004 37.8758C76.9004 37.8758 77.0953 38.1275 77.4853 38.6308C77.8752 39.1342 78.3756 39.7216 78.9864 40.3933C79.5973 41.0649 80.2948 41.6827 81.0789 42.2467C81.863 42.8108 82.6647 43.3555 83.4842 43.8809C84.3036 44.4063 85.0071 44.8047 85.5947 45.0762C86.1823 45.3477 86.8215 45.5468 87.5124 45.6735C88.2032 45.8002 88.965 45.8466 89.7979 45.8127C90.6307 45.7789 91.4084 45.6137 92.1309 45.3172C92.8533 45.0207 93.5538 44.6509 94.2323 44.2076C94.9107 43.7644 95.4554 43.21 95.8661 42.5444C96.2769 41.8787 96.5769 41.1969 96.7661 40.4989C96.9553 39.8009 97.1392 39.4673 97.3178 39.4982C97.4963 39.5291 97.5111 39.4524 97.3619 39.2681C97.2128 39.0838 97.097 38.8805 97.0145 38.6583C96.932 38.436 96.8871 38.2064 96.8799 37.9694C96.8727 37.7325 96.9035 37.5006 96.9724 37.2737C97.0412 37.0468 97.1445 36.8369 97.2822 36.6439C97.4198 36.4509 97.5847 36.2849 97.7768 36.146C97.9689 36.0071 98.1782 35.9024 98.4046 35.8321C98.631 35.7618 98.8627 35.7295 99.0997 35.7351C99.3367 35.7408 99.5666 35.7841 99.7894 35.8651C100.012 35.9462 100.216 36.0606 100.401 36.2086C100.587 36.3565 100.744 36.5302 100.872 36.7295C101 36.9288 101.093 37.1435 101.151 37.3733C101.209 37.6032 101.229 37.8363 101.21 38.0727C101.192 38.309 101.136 38.5363 101.043 38.7543C100.95 38.9724 100.825 39.1699 100.667 39.3469C100.509 39.5239 100.327 39.671 100.121 39.7883C99.9155 39.9057 99.6961 39.987 99.4635 40.0325C99.2308 40.0779 98.9969 40.0849 98.7619 40.0537C98.5269 40.0224 98.3031 39.9544 98.0903 39.8498C97.8776 39.7451 97.6872 39.6092 97.519 39.4421C97.3509 39.275 97.2138 39.0854 97.1078 38.8733C97.0018 38.6613 96.9324 38.4378 96.8997 38.203C96.867 37.9682 96.8726 37.7344 96.9165 37.5014C96.9605 37.2684 97.0405 37.0486 97.1565 36.8418C97.2726 36.6351 97.4186 36.4523 97.5946 36.2935C97.7705 36.1346 97.9673 36.008 98.1848 35.9137C98.4023 35.8193 98.6291 35.7622 98.8654 35.7422C99.1016 35.7222 99.3348 35.7405 99.5651 35.797C99.7953 35.8535 100.011 35.9453 100.211 36.0724C100.411 36.1995 100.511 36.2629 100.511 36.2628C100.51 36.2627 100.643 36.8852 100.908 38.1304C101.173 39.3756 101.199 40.372 100.984 41.1195C100.77 41.867 100.488 42.6326 100.139 43.4162C99.7902 44.1999 99.2805 44.9734 98.6103 45.7369C97.94 46.5003 97.1798 47.1497 96.3296 47.6849C95.4795 48.2201 94.7585 48.6303 94.1665 48.9156C93.5746 49.2008 92.976 49.4199 92.3708 49.5726C91.7655 49.7254 90.8517 49.8137 89.6293 49.8374C88.4069 49.861 87.3916 49.7837 86.5832 49.6054C85.7749 49.4271 84.9 49.1094 83.9587 48.6525C83.0174 48.1956 82.1095 47.6784 81.2353 47.1009C80.361 46.5235 79.4633 45.8894 78.5422 45.1985C77.6212 44.5076 76.8094 43.7611 76.107 42.9591C75.4046 42.1571 74.855 41.5072 74.4582 41.0092C74.0614 40.5113 73.8228 40.196 73.7423 40.0632C73.6618 39.9305 73.5984 39.7901 73.552 39.642C73.5056 39.4939 73.4776 39.3424 73.468 39.1875C73.4585 39.0326 73.4675 38.8787 73.4953 38.726C73.5231 38.5733 73.5687 38.4262 73.6322 38.2846C73.6957 38.1429 73.7753 38.011 73.8708 37.8887C73.9664 37.7664 74.0752 37.6573 74.1972 37.5614C74.3193 37.4655 74.451 37.3856 74.5925 37.3217C74.7339 37.2578 74.8809 37.2118 75.0336 37.1836C75.1862 37.1554 75.34 37.1459 75.4949 37.1551C75.6498 37.1643 75.8014 37.1918 75.9497 37.2378C76.0979 37.2838 76.2385 37.3468 76.3714 37.427C76.5044 37.5071 76.6258 37.6019 76.7357 37.7115C76.8455 37.8212 76.9004 37.8758 76.9004 37.8758Z" fill="#121212"/>
<path d="M16.7756 61.9774C16.7756 61.9774 17.5148 61.7836 18.9931 61.3959C20.4714 61.0083 21.9027 60.6309 23.2869 60.2637C24.6712 59.8965 26.1711 59.4624 27.7868 58.9615C29.4025 58.4607 31.0812 57.8605 32.8229 57.1611C34.5645 56.4618 36.2278 55.8188 37.8127 55.2324C39.3976 54.6459 40.7923 54.1237 41.9969 53.6659C43.2014 53.2081 44.17 52.7965 44.9024 52.4312C45.6349 52.066 46.3082 51.6806 46.9222 51.275C47.5362 50.8695 47.9088 50.6469 48.04 50.6073C48.1712 50.5677 48.3053 50.5501 48.4422 50.5545C48.5792 50.5589 48.7118 50.5851 48.8402 50.6329C48.9686 50.6808 49.086 50.748 49.1924 50.8343C49.2987 50.9207 49.3885 51.0218 49.4617 51.1376C49.535 51.2534 49.5878 51.3779 49.6202 51.5111C49.6526 51.6442 49.6629 51.779 49.6511 51.9155C49.6393 52.052 49.606 52.1831 49.5512 52.3087C49.4965 52.4343 49.4231 52.5479 49.3311 52.6494C49.239 52.7509 49.1332 52.8351 49.0136 52.902C48.894 52.9688 48.7668 53.0148 48.6321 53.0399C48.4974 53.0651 48.3623 53.0681 48.2266 53.0489C48.0909 53.0297 47.9619 52.9894 47.8394 52.9279C47.717 52.8664 47.6075 52.7869 47.5111 52.6895C47.4147 52.5922 47.3364 52.4819 47.2762 52.3589C47.2159 52.2358 47.1769 52.1064 47.1591 51.9705C47.1412 51.8346 47.1456 51.6995 47.1721 51.565C47.1986 51.4306 47.2459 51.3039 47.3139 51.185C47.382 51.0661 47.4672 50.9611 47.5697 50.8701C47.6721 50.7791 47.7865 50.7069 47.9126 50.6534C48.0387 50.5999 48.1701 50.5679 48.3068 50.5575C48.4434 50.5471 48.5781 50.5588 48.7109 50.5925C48.8437 50.6263 48.9676 50.6803 49.0827 50.7547C49.1978 50.8291 49.298 50.9199 49.3833 51.0272C49.4686 51.1344 49.5345 51.2525 49.5811 51.3813C49.6277 51.5102 49.6525 51.6431 49.6555 51.7801C49.6585 51.9171 49.6395 52.051 49.5986 52.1818C49.5577 52.3125 49.497 52.4334 49.4165 52.5442C49.336 52.6551 49.2399 52.7502 49.1282 52.8296C49.0165 52.9089 48.9607 52.9486 48.9608 52.9485C48.9609 52.9485 48.6178 53.1054 47.9314 53.4192C47.2451 53.7331 46.5061 54.0489 45.7143 54.3666C44.9226 54.6844 43.9249 55.0813 42.7211 55.5574C41.5173 56.0335 40.1366 56.5723 38.579 57.1737C37.0214 57.775 35.3517 58.4504 33.5698 59.1996C31.788 59.9489 30.0838 60.5994 28.4574 61.1511C26.8311 61.7028 25.3359 62.192 23.9719 62.6187C22.608 63.0453 21.199 63.494 19.7449 63.9646C18.2909 64.4353 17.5083 64.6798 17.397 64.6982C17.2858 64.7166 17.174 64.7214 17.0615 64.7127C16.9491 64.7039 16.8394 64.6818 16.7323 64.6464C16.6253 64.611 16.524 64.5633 16.4286 64.5033C16.3331 64.4433 16.2462 64.3727 16.1679 64.2916C16.0895 64.2105 16.022 64.1212 15.9654 64.0237C15.9088 63.9262 15.8646 63.8234 15.8329 63.7152C15.8013 63.607 15.783 63.4965 15.7782 63.3839C15.7733 63.2712 15.782 63.1596 15.8043 63.0491C15.8265 62.9386 15.8617 62.8323 15.9097 62.7303C15.9578 62.6283 16.0174 62.5335 16.0884 62.446C16.1595 62.3585 16.24 62.2807 16.33 62.2127C16.4199 62.1447 16.5167 62.0885 16.6203 62.044C16.724 61.9996 16.7757 61.9773 16.7756 61.9774Z" fill="#121212"/>
<path d="M20.2577 65.3377C20.2577 65.3377 20.9103 64.9958 22.2155 64.312C23.5207 63.6282 25.1346 62.9037 27.0574 62.1386C28.9801 61.3735 30.9984 60.653 33.1123 59.9771C35.2262 59.3013 37.3946 58.644 39.6176 58.0053C41.8405 57.3667 44.1024 56.7175 46.4033 56.0579C48.7042 55.3983 50.8103 54.8042 52.7216 54.2756C54.6329 53.747 56.2822 53.2996 57.6696 52.9334C59.0569 52.5672 60.1515 52.2692 60.9531 52.0395C61.7548 51.8098 62.2953 52.0308 62.5746 52.7025C62.854 53.3741 62.9293 53.6996 62.8006 53.6789C62.672 53.6582 62.55 53.6174 62.4347 53.5567C62.3194 53.496 62.2168 53.4184 62.1269 53.3241C62.037 53.2297 61.9645 53.1235 61.9095 53.0053C61.8544 52.8872 61.8197 52.7634 61.8052 52.6339C61.7908 52.5044 61.7974 52.3759 61.8251 52.2486C61.8527 52.1212 61.9 52.0016 61.9669 51.8898C62.0338 51.7779 62.1168 51.6797 62.2159 51.5951C62.315 51.5104 62.425 51.4438 62.5459 51.3953C62.6668 51.3467 62.7924 51.3187 62.9225 51.3113C63.0526 51.3039 63.1805 51.3175 63.3061 51.352C63.4318 51.3865 63.5487 51.4402 63.6567 51.513C63.7648 51.5859 63.8584 51.6741 63.9375 51.7776C64.0167 51.8811 64.0772 51.9946 64.1191 52.118C64.1611 52.2414 64.1822 52.3682 64.1826 52.4986C64.1829 52.6289 64.1624 52.7558 64.1212 52.8794C64.0799 53.0031 64.0199 53.1168 63.9413 53.2208C63.8627 53.3247 63.7696 53.4134 63.6619 53.4868C63.5543 53.5603 63.4377 53.6146 63.3122 53.6498C63.1867 53.6849 63.0589 53.6992 62.9288 53.6925C62.7986 53.6858 62.673 53.6584 62.5518 53.6105C62.4306 53.5626 62.3202 53.4966 62.2207 53.4125C62.1211 53.3283 62.0376 53.2305 61.9701 53.119C61.9027 53.0075 61.8548 52.8882 61.8264 52.761C61.7981 52.6338 61.7908 52.5054 61.8046 52.3758C61.8183 52.2462 61.8524 52.1222 61.9068 52.0038C61.9613 51.8854 62.0332 51.7788 62.1225 51.6839C62.2119 51.5891 62.3141 51.511 62.4291 51.4497C62.5441 51.3883 62.6658 51.347 62.7944 51.3256C62.9229 51.3042 62.9872 51.2935 62.987 51.2935C62.9869 51.2935 62.9325 51.7101 62.8239 52.5434C62.7153 53.3768 62.2598 53.8717 61.4575 54.0283C60.6551 54.1848 59.5653 54.4502 58.1881 54.8245C56.8109 55.1988 55.1718 55.6563 53.2709 56.197C51.3699 56.7376 49.2725 57.3471 46.9787 58.0254C44.6849 58.7037 42.4414 59.372 40.2482 60.0303C38.0549 60.6885 35.933 61.3641 33.8824 62.0569C31.8318 62.7498 29.8976 63.4825 28.0798 64.2551C26.262 65.0277 24.7183 65.7873 23.4488 66.5339C22.1792 67.2805 21.4951 67.6739 21.3965 67.714C21.2979 67.7541 21.1959 67.7818 21.0906 67.7972C20.9852 67.8125 20.8796 67.815 20.7736 67.8047C20.6676 67.7944 20.5645 67.7715 20.464 67.7361C20.3636 67.7008 20.2689 67.6539 20.1799 67.5955C20.0909 67.5371 20.0101 67.469 19.9377 67.391C19.8652 67.313 19.8031 67.2274 19.7514 67.1344C19.6997 67.0413 19.6599 66.9434 19.632 66.8407C19.6041 66.738 19.5888 66.6334 19.5863 66.5269C19.5838 66.4205 19.594 66.3153 19.6171 66.2114C19.6401 66.1074 19.6752 66.0078 19.7224 65.9124C19.7697 65.8169 19.8276 65.7286 19.8963 65.6472C19.965 65.5659 20.0424 65.494 20.1286 65.4314C20.2147 65.3689 20.2577 65.3377 20.2577 65.3377Z" fill="#121212"/>
<path d="M115.058 24.6262C115.058 24.6262 115.626 24.2701 116.761 23.558C117.896 22.8459 119.136 22.1382 120.48 21.4348C121.824 20.7313 123.194 20.0394 124.589 19.3589C125.985 18.6784 127.447 17.9819 128.975 17.2693C130.503 16.5567 131.877 15.9098 133.095 15.3285C134.313 14.7472 135.387 14.2024 136.317 13.6942C137.246 13.186 138.042 12.7246 138.706 12.31C139.369 11.8954 140.057 11.4457 140.772 10.9609C141.486 10.476 142.052 10.1568 142.47 10.0032C142.888 9.84959 143.17 9.77159 143.317 9.7692C143.463 9.76681 143.606 9.78786 143.746 9.83234C143.885 9.87682 144.014 9.9424 144.132 10.0291C144.25 10.1158 144.351 10.219 144.435 10.3389C144.519 10.4587 144.582 10.5888 144.623 10.7292C144.665 10.8696 144.683 11.013 144.677 11.1593C144.672 11.3056 144.643 11.4472 144.591 11.5841C144.539 11.721 144.466 11.8459 144.373 11.9591C144.281 12.0722 144.172 12.1675 144.048 12.245C143.924 12.3225 143.79 12.3782 143.648 12.4119C143.505 12.4457 143.361 12.4559 143.215 12.4424C143.07 12.429 142.93 12.3926 142.796 12.3333C142.662 12.2739 142.541 12.1948 142.433 12.0959C142.325 11.9969 142.236 11.8833 142.165 11.7551C142.095 11.6269 142.046 11.4907 142.02 11.3466C141.994 11.2026 141.992 11.0581 142.013 10.9133C142.035 10.7684 142.079 10.6308 142.145 10.5003C142.212 10.3699 142.297 10.2535 142.402 10.1511C142.506 10.0487 142.625 9.96568 142.757 9.90207C142.888 9.83846 143.027 9.79756 143.172 9.77939C143.318 9.76121 143.462 9.76671 143.605 9.79587C143.749 9.82504 143.884 9.87635 144.011 9.9498C144.137 10.0232 144.249 10.115 144.345 10.225C144.442 10.3351 144.518 10.4577 144.575 10.5928C144.631 10.7279 144.665 10.8685 144.675 11.0146C144.685 11.1606 144.672 11.3045 144.635 11.4461C144.598 11.5878 144.539 11.7199 144.459 11.8424C144.379 11.9649 144.281 12.0714 144.166 12.1618C144.051 12.2523 143.925 12.322 143.787 12.371C143.649 12.4199 143.58 12.4444 143.58 12.4444C143.58 12.4444 143.496 12.4714 143.329 12.5256C143.162 12.5798 142.707 12.7908 141.966 13.1587C141.225 13.5266 140.498 13.8957 139.785 14.2662C139.072 14.6367 138.235 15.0706 137.273 15.5681C136.312 16.0656 135.225 16.6179 134.013 17.2251C132.801 17.8322 131.446 18.5045 129.948 19.2419C128.451 19.9793 127.027 20.704 125.678 21.4159C124.329 22.1278 123.033 22.8445 121.79 23.5662C120.547 24.2878 119.384 25.0436 118.302 25.8334C117.22 26.6233 116.627 27.0447 116.524 27.0978C116.421 27.1508 116.313 27.1907 116.2 27.2175C116.087 27.2443 115.972 27.2572 115.856 27.2562C115.74 27.2552 115.626 27.2403 115.513 27.2115C115.401 27.1827 115.293 27.1409 115.191 27.0861C115.089 27.0312 114.995 26.9649 114.908 26.8872C114.822 26.8095 114.746 26.7225 114.681 26.6264C114.616 26.5303 114.564 26.4278 114.523 26.3189C114.483 26.21 114.457 26.0979 114.444 25.9825C114.431 25.8671 114.432 25.7519 114.447 25.6368C114.462 25.5217 114.49 25.41 114.532 25.3018C114.574 25.1937 114.629 25.0921 114.696 24.9971C114.762 24.9022 114.84 24.8166 114.927 24.7404C115.015 24.6642 115.059 24.6261 115.058 24.6262Z" fill="#121212"/>
<path d="M118.021 29.0077C118.021 29.0077 118.566 28.7573 119.657 28.2566C120.748 27.7558 121.838 27.2735 122.929 26.8094C124.019 26.3454 125.111 25.9222 126.205 25.5398C127.299 25.1574 128.449 24.818 129.654 24.5216C130.86 24.2252 132.067 23.9157 133.275 23.5931C134.484 23.2705 135.62 22.9775 136.683 22.714C137.747 22.4505 138.706 22.1851 139.561 21.9178C140.416 21.6506 141.224 21.3976 141.985 21.159C142.746 20.9203 143.442 20.6907 144.072 20.4702C144.701 20.2497 145.465 19.9869 146.363 19.6819C147.26 19.3769 148.054 19.1027 148.743 18.8592C149.433 18.6157 149.863 18.4951 150.035 18.4974C150.206 18.4997 150.373 18.5293 150.535 18.5862C150.696 18.6432 150.845 18.7244 150.98 18.83C151.115 18.9356 151.23 19.06 151.324 19.2032C151.418 19.3464 151.487 19.5009 151.531 19.6667C151.575 19.8325 151.591 20.001 151.579 20.1721C151.567 20.3431 151.529 20.5079 151.463 20.6663C151.398 20.8247 151.308 20.9685 151.196 21.0977C151.083 21.2269 150.953 21.3347 150.804 21.4211C150.656 21.5076 150.498 21.5681 150.33 21.6027C150.162 21.6373 149.993 21.6442 149.823 21.6233C149.653 21.6025 149.491 21.555 149.336 21.4809C149.181 21.4069 149.042 21.31 148.92 21.1904C148.797 21.0708 148.696 20.9348 148.618 20.7822C148.54 20.6296 148.488 20.4686 148.462 20.299C148.437 20.1294 148.439 19.9602 148.469 19.7914C148.499 19.6226 148.555 19.463 148.638 19.3126C148.72 19.1622 148.824 19.0289 148.95 18.9127C149.076 18.7964 149.218 18.7034 149.374 18.6335C149.531 18.5636 149.695 18.5206 149.865 18.5043C150.036 18.4881 150.205 18.4996 150.372 18.5387C150.539 18.5778 150.695 18.6426 150.841 18.733C150.986 18.8233 151.114 18.9346 151.223 19.0668C151.332 19.199 151.418 19.3452 151.479 19.5053C151.54 19.6654 151.574 19.8312 151.581 20.0025C151.588 20.1738 151.568 20.3418 151.52 20.5064C151.471 20.671 151.398 20.8235 151.3 20.9641C151.202 21.1047 151.084 21.226 150.946 21.3279C150.808 21.4298 150.658 21.507 150.494 21.5595C150.331 21.6121 150.25 21.6383 150.25 21.6383C150.25 21.6383 149.965 21.707 149.396 21.8445C148.827 21.982 148.085 22.1559 147.169 22.3663C146.252 22.5767 145.462 22.7698 144.797 22.9457C144.132 23.1215 143.415 23.304 142.645 23.4931C141.875 23.6822 141.042 23.894 140.145 24.1284C139.249 24.3629 138.281 24.602 137.243 24.8457C136.205 25.0895 135.079 25.3945 133.866 25.7606C132.654 26.1267 131.484 26.467 130.358 26.7815C129.232 27.0959 128.156 27.444 127.13 27.8258C126.104 28.2075 125.072 28.6447 124.035 29.1373C122.997 29.6299 121.951 30.1622 120.896 30.7343C119.841 31.3063 119.259 31.6119 119.149 31.6509C119.04 31.69 118.928 31.7153 118.812 31.7271C118.697 31.7388 118.581 31.7365 118.466 31.7203C118.351 31.704 118.24 31.6742 118.132 31.6309C118.025 31.5876 117.924 31.532 117.829 31.4642C117.735 31.3964 117.65 31.3183 117.575 31.2298C117.5 31.1414 117.436 31.0453 117.384 30.9414C117.332 30.8376 117.294 30.729 117.268 30.6157C117.243 30.5025 117.231 30.3878 117.233 30.2717C117.235 30.1556 117.252 30.0415 117.282 29.9293C117.312 29.8172 117.355 29.7102 117.411 29.6085C117.467 29.5068 117.534 29.4132 117.613 29.3278C117.691 29.2425 117.779 29.1677 117.876 29.1037C117.973 29.0396 118.021 29.0076 118.021 29.0077Z" fill="#121212"/>
<path d="M152.996 8.5956C152.996 8.5956 152.904 8.49106 152.718 8.28197C152.532 8.07288 152.178 7.72554 151.655 7.23995C151.132 6.75435 150.562 6.60295 149.943 6.78572C149.324 6.9685 148.982 7.41023 148.916 8.11091C148.85 8.81158 148.903 9.52021 149.076 10.2368C149.248 10.9533 149.447 11.6966 149.673 12.4665C149.898 13.2365 150.177 13.8988 150.51 14.4536C150.843 15.0084 151.217 15.6197 151.632 16.2877C152.046 16.9556 152.458 17.5817 152.869 18.1659C153.279 18.7502 153.74 19.3943 154.252 20.0985C154.764 20.8026 155.311 21.3544 155.894 21.7536C156.477 22.1529 157.097 22.1323 157.753 21.6919C158.409 21.2514 158.938 20.7309 159.338 20.1304C159.739 19.5298 160.125 18.9433 160.497 18.3708C160.869 17.7983 161.199 17.2317 161.486 16.6711C161.773 16.1105 162.022 15.4883 162.233 14.8045C162.443 14.1208 162.542 13.4362 162.529 12.7508C162.517 12.0655 162.51 11.4053 162.51 10.7703C162.509 10.1352 162.48 9.47191 162.423 8.78029C162.365 8.08866 162.228 7.43563 162.011 6.8212C161.795 6.20676 161.481 6.16406 161.071 6.6931C160.662 7.22214 160.257 7.93553 159.856 8.83327C159.456 9.73101 159.129 10.2416 158.875 10.3652C158.621 10.4887 158.353 10.5684 158.073 10.6043C157.792 10.6401 157.514 10.6303 157.236 10.5747C156.959 10.5192 156.698 10.4209 156.453 10.2797C156.208 10.1386 155.992 9.96202 155.805 9.75006C155.618 9.5381 155.47 9.30182 155.36 9.04123C155.251 8.78065 155.186 8.50938 155.165 8.22745C155.145 7.94552 155.169 7.66767 155.24 7.39392C155.31 7.12016 155.423 6.86482 155.577 6.6279C155.731 6.39098 155.919 6.18488 156.141 6.00961C156.363 5.83433 156.607 5.69905 156.873 5.60377C157.139 5.50848 157.413 5.45819 157.696 5.45287C157.979 5.44756 158.255 5.48751 158.524 5.57273C158.794 5.65794 159.043 5.78396 159.271 5.95078C159.499 6.1176 159.695 6.31649 159.858 6.54745C160.021 6.77841 160.143 7.02934 160.223 7.30026C160.304 7.57118 160.339 7.84789 160.329 8.1304C160.319 8.4129 160.265 8.68642 160.165 8.95094C160.065 9.21546 159.926 9.45714 159.747 9.67598C159.568 9.89482 159.359 10.0794 159.119 10.2296C158.88 10.3799 158.623 10.4879 158.348 10.5539C158.073 10.6198 157.795 10.6401 157.513 10.6148C157.232 10.5895 156.961 10.5199 156.703 10.406C156.444 10.2921 156.21 10.1399 156.001 9.94936C155.793 9.75882 155.62 9.53993 155.483 9.29269C155.345 9.04545 155.252 8.7828 155.201 8.50474C155.15 8.22668 155.144 7.94776 155.185 7.668C155.226 7.38823 155.31 7.12226 155.437 6.87008C155.565 6.6179 155.73 6.39272 155.931 6.19453C156.133 5.99634 156.234 5.89732 156.233 5.89747C156.233 5.89763 156.172 5.76637 156.049 5.50369C155.926 5.24102 156.162 4.73761 156.757 3.99344C157.351 3.24928 157.946 2.70798 158.542 2.36955C159.138 2.03112 159.738 1.77422 160.343 1.59887C160.947 1.42351 161.597 1.34077 162.291 1.35064C162.986 1.36051 163.671 1.55109 164.347 1.92237C165.023 2.29365 165.555 2.77693 165.945 3.37222C166.334 3.96751 166.68 4.73546 166.981 5.67609C167.282 6.61672 167.484 7.5935 167.587 8.60645C167.689 9.61939 167.74 10.4529 167.739 11.107C167.739 11.7611 167.723 12.4388 167.693 13.1401C167.664 13.8413 167.593 14.5021 167.481 15.1224C167.369 15.7427 167.208 16.3472 166.996 16.9359C166.785 17.5247 166.452 18.2163 165.996 19.0109C165.541 19.8054 165.059 20.5874 164.55 21.357C164.04 22.1266 163.546 22.9175 163.066 23.7298C162.586 24.542 162.093 25.265 161.586 25.8987C161.078 26.5323 160.333 27.0092 159.349 27.3295C158.365 27.6497 157.546 27.7252 156.893 27.5562C156.239 27.3871 155.613 27.2167 155.015 27.045C154.417 26.8733 153.824 26.6144 153.236 26.2681C152.649 25.9218 152.051 25.4001 151.443 24.7028C150.834 24.0055 150.36 23.3738 150.021 22.8078C149.682 22.2418 149.237 21.5406 148.686 20.7043C148.135 19.868 147.65 19.1424 147.229 18.5275C146.808 17.9127 146.45 17.2668 146.154 16.5899C145.859 15.9129 145.556 15.2212 145.245 14.5147C144.934 13.8082 144.714 13.1241 144.585 12.4623C144.456 11.8005 144.346 11.0831 144.255 10.31C144.164 9.53695 144.137 8.83472 144.176 8.20332C144.214 7.57192 144.365 6.932 144.629 6.28356C144.893 5.63512 145.415 4.96255 146.193 4.26584C146.972 3.56914 147.803 3.14427 148.689 2.99125C149.574 2.83822 150.338 2.8098 150.98 2.90597C151.623 3.00214 152.278 3.22019 152.947 3.5601C153.615 3.90002 154.202 4.29939 154.708 4.75821C155.215 5.21703 155.554 5.55645 155.726 5.77649C155.897 5.99653 156.026 6.17214 156.111 6.30334C156.195 6.43453 156.263 6.57397 156.314 6.72165C156.365 6.86932 156.398 7.02096 156.412 7.17654C156.426 7.33212 156.421 7.48713 156.398 7.64157C156.374 7.79602 156.333 7.9454 156.273 8.08972C156.213 8.23405 156.137 8.36913 156.044 8.49495C155.952 8.62077 155.845 8.73368 155.725 8.83369C155.605 8.93369 155.475 9.01788 155.335 9.08626C155.194 9.15463 155.047 9.20521 154.895 9.23798C154.742 9.27075 154.587 9.28477 154.431 9.28003C154.275 9.2753 154.122 9.25194 153.971 9.20998C153.821 9.16801 153.678 9.10864 153.542 9.03188C153.406 8.95512 153.281 8.86319 153.167 8.7561C153.053 8.649 152.996 8.59555 152.996 8.5956Z" fill="#121212"/>
</svg>
