<svg width="814" height="805" viewBox="0 0 814 805" fill="none" xmlns="http://www.w3.org/2000/svg">
<path opacity="0.05" d="M420.579 25.2556C433.748 23.1077 447.07 22.0209 460.507 21.9954C473.945 22.4684 487.446 24.041 500.909 26.662C514.282 29.7816 527.464 33.8984 540.3 38.9614C552.817 44.4207 564.72 50.6983 575.792 57.7301C586.238 64.9922 595.545 72.8807 603.472 81.2934C610.517 89.7828 616.014 98.6813 619.876 107.912C622.97 117.054 624.657 126.464 625.156 136.078C625.667 145.501 625.795 155.09 626.089 164.807C627.828 174.306 630.884 183.921 635.844 193.65C643.567 203.15 653.872 212.79 666.861 222.583C682.459 232.159 700.001 241.94 718.667 251.913C737.551 261.719 755.348 271.768 770.716 282.073C782.824 292.263 790.418 302.747 792.771 313.537C790.431 324.264 783.131 335.311 771.739 346.715C758.519 358.068 744.353 369.805 731.107 381.9C721.365 393.982 715.765 406.461 715.292 419.323C720.7 432.185 730.57 445.149 743.445 458.164C758.366 471.192 772.583 484.272 784.268 497.377C792.783 510.482 796.223 523.574 794.228 536.615C787.426 549.63 775.805 562.543 760.449 575.264C742.819 587.909 723.973 600.311 705.23 612.367C687.804 624.232 672.436 635.662 659.651 646.555C649.959 657.128 643.068 667.05 638.606 676.191C636.394 688.81 637.545 708.525 637.353 715.352C635.09 720.326 620.54 724.443 608.305 723.982C598.678 723.343 587.785 722.141 575.933 720.492C563.493 719.252 550.426 717.909 536.976 716.644C523.27 716.235 509.424 716.196 495.59 716.669C481.705 718.319 467.936 720.645 454.383 723.676C440.857 727.933 427.56 732.804 414.532 738.2C401.504 744.49 389.038 750.806 377.071 756.904C365.053 763.272 353.482 768.961 342.295 773.781C330.98 778.243 319.946 781.465 309.13 783.332C298.058 784.406 287.076 783.932 276.106 781.925C264.778 778.959 253.348 774.459 241.79 768.526C229.81 761.712 217.664 753.606 205.378 744.375C192.81 734.505 180.242 723.714 167.776 712.194C155.387 700.317 143.408 687.902 132.054 675.117C121.238 662.23 111.368 649.125 102.648 635.905C94.7853 622.749 88.2009 609.58 82.9462 596.45C78.433 583.485 75.0193 570.572 72.5518 557.774C70.1993 545.142 68.2687 532.587 66.5043 520.122C64.0879 507.797 61.3774 495.523 58.2834 483.287C54.1793 471.154 49.6789 459.021 44.9484 446.888C39.6681 434.806 34.6818 422.698 30.3476 410.565C26.4609 398.444 23.8655 386.273 22.8555 374.076C22.9322 361.891 24.7093 349.95 27.9951 338.302C31.9714 326.655 36.9193 315.302 42.4553 304.268C47.7228 293.247 52.9775 282.584 57.9766 272.279C62.0167 262.013 65.6349 252.143 68.844 242.707C71.1837 233.31 73.4723 224.348 75.9015 215.858C78.1645 207.394 81.1051 199.391 84.9407 191.873C89.326 184.342 94.9259 177.259 101.779 170.637C109.501 163.95 118.464 157.66 128.5 151.753C139.24 145.693 150.798 139.939 162.956 134.493C175.409 128.791 188.169 123.293 201.082 118C213.88 112.349 226.652 106.838 239.31 101.443C251.673 95.6512 263.909 89.949 276.016 84.3618C287.804 78.3783 299.554 72.5483 311.316 66.8972C322.836 60.952 334.483 55.2882 346.322 49.9823C358.034 44.5741 370.026 39.6518 382.377 35.356C394.676 31.1752 407.398 27.7743 420.566 25.2556" stroke="url(#paint0_linear_2079_1265)" stroke-width="2.55705" stroke-linecap="round" stroke-dasharray="2.56 3.84"/>
<path opacity="0.09" d="M451.001 41.8309C463.879 40.6 476.673 40.3885 489.306 41.1783C501.867 42.4372 514.229 44.7201 526.25 48.0044C538.111 51.7388 549.495 56.4264 560.255 61.9543C570.655 67.867 580.221 74.5281 588.765 81.8478C596.744 89.371 603.506 97.4363 608.942 105.946C613.721 114.5 617.143 123.393 619.265 132.553C621.045 141.651 621.875 150.951 622.051 160.435C622.748 169.802 623.584 179.371 625.074 189.128C628.287 198.801 633.046 208.724 639.786 218.916C649.066 229.069 660.607 239.522 674.332 250.258C689.97 260.95 706.82 271.894 724.042 283.031C740.814 293.995 755.952 305.048 768.307 316.136C777.341 326.874 782.007 337.573 781.796 348.183C777.47 358.439 768.825 368.684 756.741 378.995C743.346 389.174 729.341 399.643 716.396 410.521C706.769 421.607 700.943 433.32 699.723 445.705C703.858 458.468 712.046 471.569 723.024 484.905C736.043 498.372 748.665 511.85 759.261 525.147C767.269 538.247 770.88 550.999 769.639 563.306C764.015 575.251 753.797 586.719 739.807 597.702C723.261 608.402 704.988 618.685 686.194 628.547C667.987 638.258 651.127 647.59 636.259 656.486C623.923 665.279 614.11 673.558 606.671 681.248C597.893 700.636 592.818 719.144 588.863 721.236C582.576 721.881 561.837 718.994 547.884 716.201C537.629 714.58 526.563 712.837 514.866 711.139C502.816 710.25 490.348 709.664 477.643 709.535C464.746 710.483 451.731 712.012 438.687 714.141C425.55 717.392 412.44 721.182 399.414 725.415C386.329 730.476 373.64 735.553 361.336 740.451C348.975 745.602 336.951 750.162 325.251 753.95C313.443 757.448 301.88 759.823 290.519 760.994C278.976 761.461 267.545 760.525 256.163 758.17C244.56 754.954 232.943 750.301 221.307 744.288C209.46 737.453 197.611 729.375 185.801 720.197C173.971 710.389 162.346 699.673 151.056 688.225C140.073 676.401 129.692 664.055 120.107 651.318C111.197 638.474 103.327 625.408 96.6421 612.26C90.7863 599.17 86.1612 586.078 82.7477 573.071C79.9145 560.195 78.0224 547.423 76.8655 534.768C75.6613 522.238 74.7086 509.776 73.7742 497.419C72.0792 485.123 70.0372 472.841 67.5552 460.617C64.074 448.387 60.2203 436.17 56.1725 423.977C51.6365 411.801 47.432 399.648 43.9154 387.556C40.8688 375.524 39.1104 363.582 38.8933 351.775C39.7985 340.047 42.3419 328.717 46.3421 317.81C51.0948 306.957 56.7942 296.49 63.0952 286.4C69.2167 276.309 75.3384 266.578 81.2173 257.201C86.2016 247.786 90.7252 238.723 94.7719 230.063C97.9131 221.338 100.846 213.022 103.746 205.165C106.316 197.272 109.353 189.847 113.059 182.919C117.139 175.965 122.261 169.508 128.476 163.539C135.476 157.522 143.662 151.948 152.934 146.797C162.958 141.519 173.893 136.588 185.563 131.965C197.685 127.104 210.278 122.47 223.152 118.034C236.153 113.262 249.26 108.612 262.358 104.09C275.342 99.1751 288.244 94.3443 301.048 89.6347C313.66 84.5527 326.185 79.6183 338.658 74.8726C350.957 69.871 363.275 65.1399 375.642 60.7969C387.915 56.3446 400.306 52.4005 412.859 49.0702C425.364 45.8648 438.072 43.4171 450.988 41.83" stroke="url(#paint1_linear_2079_1265)" stroke-width="2.55705" stroke-linecap="round" stroke-dasharray="10.23 10.23"/>
<path opacity="0.13" d="M474.965 60.1594C487.415 59.7833 499.5 60.3495 511.183 61.8273C522.766 63.7428 533.868 66.5845 544.389 70.338C554.71 74.5021 564.319 79.4949 573.108 85.2623C581.539 91.3663 589 98.1204 595.385 105.445C601.315 112.976 606.072 120.947 609.638 129.305C612.833 137.726 614.939 146.445 616.108 155.405C617.329 164.359 618.039 173.551 618.589 182.953C619.988 192.384 621.944 202.076 624.851 212.07C629.577 222.168 635.891 232.633 644.062 243.478C654.409 254.465 666.584 265.852 680.365 277.571C695.395 289.313 710.948 301.283 726.214 313.368C740.511 325.173 752.783 336.884 762.079 348.354C768.135 359.273 770.059 369.826 767.556 379.995C761.533 389.587 751.828 398.914 739.273 408.121C725.878 417.157 712.175 426.446 699.583 436.191C690.131 446.368 684.107 457.328 682.207 469.171C685.114 481.71 691.678 494.78 700.828 508.192C711.989 521.902 722.989 535.564 732.43 548.926C739.809 561.983 743.467 574.422 742.855 586.099C738.364 597.174 729.571 607.445 717.109 616.91C701.965 625.892 684.754 634.244 666.526 642.026C648.247 649.619 630.659 656.807 614.469 663.6C600.204 670.395 588.07 676.821 578.093 682.791C562.13 698.358 551.656 713.465 548.285 715.014C543.615 715.345 527.907 712.108 516.87 709.172C508.607 707.431 499.435 705.548 489.477 703.643C479.107 702.468 468.134 701.53 456.674 700.936C444.947 701.312 432.857 702.152 420.503 703.485C407.981 705.827 395.268 708.593 382.428 711.716C369.495 715.588 356.756 719.448 344.274 723.139C331.719 727.077 319.394 730.48 307.298 733.179C295.145 735.65 283.196 737.131 271.418 737.499C259.557 737.275 247.837 735.779 236.223 732.993C224.54 729.424 212.953 724.537 201.491 718.403C190.009 711.505 178.716 703.458 167.687 694.364C156.83 684.7 146.406 674.167 136.533 662.939C127.136 651.364 118.506 639.292 110.83 626.864C103.867 614.331 98.0014 601.618 93.3217 588.828C89.396 576.093 86.5914 563.375 84.8572 550.758C83.548 538.24 82.9893 525.803 82.9803 513.495C82.7581 501.234 82.6443 489.028 82.4186 476.883C81.3574 464.71 79.9093 452.533 77.9929 440.381C75.1327 428.146 71.9234 415.914 68.5515 403.735C64.7836 391.527 61.3647 379.406 58.6457 367.45C56.4204 355.563 55.4663 343.909 56.0241 332.521C57.6579 321.286 60.8923 310.601 65.523 300.45C70.9132 290.406 77.2441 280.832 84.1846 271.694C91.0222 262.553 97.8871 253.765 104.544 245.348C110.381 236.801 115.745 228.575 120.595 220.702C124.523 212.685 128.116 205.021 131.536 197.758C134.504 190.406 137.72 183.489 141.385 177.049C145.248 170.572 149.944 164.601 155.553 159.109C161.835 153.609 169.201 148.572 177.587 143.99C186.733 139.323 196.833 135.036 207.711 131.092C219.183 126.961 231.253 123.083 243.729 119.431C256.52 115.474 269.546 111.68 282.684 108.006C295.894 104.005 309.092 100.094 322.246 96.305C335.344 92.1855 348.357 88.209 361.262 84.4495C374.099 80.4351 386.869 76.7209 399.562 73.3576C412.202 69.922 424.811 66.9728 437.389 64.6004C449.923 62.3637 462.457 60.8502 474.952 60.1576" stroke="url(#paint2_linear_2079_1265)" stroke-width="2.55705" stroke-linecap="round" stroke-dasharray="14.06 1.28"/>
<path opacity="0.16" d="M492.385 79.0786C504.25 79.4821 515.532 80.7149 526.209 82.7591C536.749 85.1926 546.603 88.4464 555.701 92.4795C564.574 96.8955 572.596 102.044 579.683 107.829C586.468 113.929 592.251 120.61 596.98 127.759C601.4 135.129 604.793 142.893 607.199 150.994C609.487 159.214 611.007 167.726 611.958 176.509C613.255 185.392 614.421 194.573 615.797 204.062C618.236 213.713 621.457 223.742 625.777 234.189C631.813 244.874 639.341 256.037 648.465 267.686C659.295 279.545 671.474 291.824 684.654 304.436C698.474 317.054 712.226 329.802 725.154 342.49C736.741 354.786 746.046 366.749 752.34 378.235C755.579 388.973 755.024 399.106 750.545 408.58C743.126 417.369 732.611 425.717 719.823 433.811C706.58 441.769 693.259 449.971 681.09 458.656C671.845 467.969 665.675 478.191 663.138 489.454C664.914 501.644 669.948 514.494 677.353 527.814C686.686 541.535 696.084 555.191 704.305 568.49C710.98 581.431 714.545 593.574 714.44 604.719C710.971 615.089 703.602 624.373 692.761 632.598C679.241 640.143 663.448 646.821 646.287 652.747C628.574 658.384 610.993 663.527 594.223 668.243C578.781 672.982 564.999 677.424 553.083 681.521C539.134 687.653 521.815 697.664 516.721 701.108C509.246 704.25 492.773 701.614 483.921 698.811C477.269 697.147 469.689 695.297 461.278 693.36C452.449 692.092 442.886 690.954 432.673 690.042C422.132 689.988 411.046 690.275 399.504 690.922C387.735 692.448 375.594 694.3 363.132 696.371C350.522 699.129 337.951 701.83 325.487 704.332C312.955 707.094 300.546 709.346 288.288 710.95C276.025 712.397 263.908 712.92 251.976 712.463C240.058 711.512 228.309 709.408 216.76 706.13C205.273 702.199 194.004 697.072 183.019 690.803C172.211 683.892 161.761 675.92 151.761 667.012C142.129 657.608 133.113 647.407 124.818 636.589C117.136 625.472 110.333 613.916 104.566 602.046C99.5212 590.096 95.5725 577.976 92.7552 565.824C90.5843 553.707 89.4163 541.608 89.1475 529.585C89.1412 517.619 89.6956 505.72 90.6277 493.89C91.2116 482.037 91.765 470.204 92.1105 458.365C91.6023 446.421 90.6735 434.427 89.2787 422.41C86.998 410.256 84.4317 398.093 81.7492 385.983C78.7336 373.841 76.1047 361.848 74.1721 350.082C72.7646 338.429 72.5785 327.117 73.8388 316.194C76.1617 305.499 79.9897 295.468 85.1427 286.087C91.0733 276.86 97.9092 268.167 105.355 259.984C112.778 251.784 120.264 243.963 127.584 236.486C134.166 228.851 140.299 221.485 145.911 214.412C150.615 207.119 154.89 200.125 158.88 193.476C164.058 183.434 175.518 165.325 182.829 157.401C188.459 152.255 195.02 147.583 202.522 143.401C210.726 139.174 219.851 135.353 229.785 131.903C240.369 128.344 251.612 125.07 263.388 122.054C275.604 118.819 288.16 115.762 300.952 112.886C313.951 109.714 327.064 106.685 340.16 103.796C353.355 100.627 366.487 97.6279 379.499 94.8253C392.526 91.8298 405.441 89.1111 418.191 86.7361C430.924 84.3182 443.507 82.3521 455.913 80.9101C468.274 79.6154 480.442 78.9724 492.372 79.0759" stroke="url(#paint3_linear_2079_1265)" stroke-width="2.55705" stroke-linecap="round" stroke-dasharray="10.23 7.67"/>
<path opacity="0.2" d="M503.946 97.6387C515.104 98.7289 525.538 100.528 535.226 103.016C544.762 105.846 553.481 109.384 561.343 113.579C568.985 118.123 575.717 123.281 581.5 129.003C587.051 135.018 591.639 141.512 595.297 148.456C598.786 155.617 601.433 163.159 603.353 171.05C605.365 179.127 606.896 187.531 608.182 196.276C610.003 205.243 611.997 214.58 614.428 224.336C617.971 234.387 622.387 244.918 627.904 255.968C634.883 267.348 643.141 279.272 652.629 291.685C663.337 304.345 674.893 317.384 686.896 330.673C698.993 343.869 710.55 357.041 720.872 369.976C729.635 382.365 736.025 394.214 739.482 405.345C740.147 415.588 737.411 425.031 731.292 433.654C722.768 441.527 711.722 448.869 698.894 455.881C685.943 462.817 673.103 470.011 661.4 477.735C652.378 486.222 646.096 495.73 643.006 506.348C643.719 518.082 647.327 530.575 653.084 543.598C660.687 557.142 668.506 570.629 675.504 583.732C681.396 596.475 684.731 608.303 685.014 618.994C682.425 628.8 676.391 637.314 667.17 644.559C655.39 650.942 641.282 656.265 625.574 660.632C608.95 664.574 592.003 667.889 575.363 670.695C559.487 673.482 544.805 675.963 531.588 678.163C519.978 680.563 510.012 682.707 501.582 684.51C485.365 688.982 469.398 690.705 464.133 689.259C458.108 687.54 441.863 682.553 431.448 679.815C423.868 678.55 415.496 677.309 406.408 676.193C396.966 675.84 386.869 675.682 376.177 675.739C365.217 676.583 353.741 677.597 341.805 678.731C329.707 680.47 317.512 682.087 305.299 683.487C293.015 685.132 280.781 686.286 268.652 686.845C256.543 687.289 244.58 686.911 232.807 685.643C221.133 683.99 209.693 681.301 198.539 677.576C187.575 673.334 176.952 668.007 166.76 661.699C156.882 654.857 147.542 647.078 138.825 638.483C130.582 629.492 123.112 619.806 116.5 609.597C110.529 599.148 105.534 588.317 101.586 577.229C98.3313 566.09 96.115 554.812 94.9492 543.492C94.2855 532.185 94.4719 520.885 95.4167 509.631C96.4301 498.37 97.8684 487.113 99.5226 475.892C100.71 464.536 101.775 453.144 102.578 441.689C102.52 430.038 102.05 418.294 101.131 406.488C99.4289 394.493 97.4752 382.493 95.467 370.543C93.2025 358.559 91.35 346.761 90.1971 335.259C89.5687 323.922 90.1101 313.004 92.0353 302.594C94.9674 292.475 99.3016 283.122 104.891 274.492C111.244 266.07 118.472 258.261 126.313 251.002C134.194 243.741 142.175 236.869 150.029 230.346C157.263 223.617 164.066 217.136 170.361 210.894C175.807 204.365 180.788 198.061 185.384 192.032C191.288 182.774 203.122 165.824 210.015 158.344C215.133 153.451 221.015 149.045 227.693 145.11C234.977 141.151 243.119 137.627 252.047 134.517C261.595 131.333 271.857 128.49 282.693 125.959C294.029 123.267 305.812 120.825 317.922 118.584C330.344 116.14 342.952 113.883 355.646 111.784C368.519 109.485 381.388 107.383 394.147 105.476C407.013 103.428 419.721 101.652 432.227 100.205C444.764 98.7394 457.064 97.6844 469.062 97.1146C481.034 96.6835 492.69 96.8396 503.93 97.6474" stroke="url(#paint4_linear_2079_1265)" stroke-width="2.55705" stroke-linecap="round" stroke-dasharray="8.95 14.06"/>
<path opacity="0.24" d="M510.953 115.269C521.35 116.928 530.94 119.19 539.719 122.025C548.339 125.183 556.103 128.925 562.973 133.21C569.662 137.837 575.454 142.979 580.361 148.599C585.101 154.525 589.01 160.895 592.131 167.67C595.211 174.702 597.668 182.131 599.631 189.938C601.826 198.006 603.802 206.485 605.76 215.379C608.353 224.589 611.274 234.273 614.758 244.465C619.262 255.032 624.606 266.166 630.916 277.86C638.383 289.926 646.809 302.535 656.066 315.586C666.082 328.835 676.445 342.361 686.78 356C696.798 369.426 705.901 382.638 713.528 395.417C719.486 407.513 723.1 418.869 723.951 429.332C722.352 438.824 717.784 447.388 710.345 455.019C701.023 461.915 689.692 468.236 677.013 474.224C664.454 480.216 652.146 486.491 640.954 493.326C632.201 501.045 625.839 509.821 622.256 519.782C622.012 530.959 624.317 542.951 628.549 555.515C634.509 568.716 640.814 581.866 646.593 594.632C651.63 607.084 654.649 618.576 655.17 628.862C653.324 638.21 648.497 646.147 640.829 652.657C630.813 658.182 618.53 662.463 604.546 665.628C589.404 668.203 573.593 670.001 557.693 671.154C542.059 672.213 527.168 672.919 513.342 673.322C500.678 673.935 489.392 674.36 479.48 674.568C467.244 675.202 449.635 675.372 443.06 674.655C431.592 672.057 410.924 665.543 401.681 662.932C394.948 661.681 387.493 660.396 379.296 659.124C370.772 658.521 361.537 657.998 351.669 657.568C341.505 657.793 330.768 658.093 319.485 658.397C308.025 659.221 296.379 659.881 284.653 660.28C272.866 660.916 261.079 661.075 249.368 660.69C237.713 660.229 226.213 659.05 214.94 657.068C203.825 654.804 193.03 651.636 182.601 647.581C172.449 643.11 162.781 637.728 153.658 631.497C144.943 624.857 136.888 617.425 129.586 609.316C122.848 600.898 116.956 591.918 111.992 582.49C107.688 572.896 104.361 562.981 102.06 552.87C100.355 542.693 99.6327 532.401 99.8095 522.071C100.363 511.717 101.614 501.319 103.459 490.936C105.246 480.45 107.294 469.923 109.444 459.339C111.067 448.561 112.503 437.659 113.627 426.643C113.931 415.339 113.846 403.905 113.372 392.383C112.198 380.616 110.845 368.852 109.495 357.157C107.967 345.424 106.878 333.907 106.469 322.762C106.588 311.812 107.808 301.349 110.321 291.484C113.794 281.972 118.567 273.293 124.505 265.41C131.175 257.797 138.691 250.849 146.795 244.485C155.004 238.132 163.357 232.201 171.628 226.607C179.403 220.803 186.787 215.21 193.705 209.813C202.668 201.299 217.457 184.726 223.913 176.843C230.073 168.987 244.27 155.097 252.974 149.213C259.459 145.4 266.69 142.039 274.631 139.117C283.148 136.147 292.337 133.575 302.121 131.344C312.426 129.032 323.212 127.007 334.39 125.248C345.944 123.355 357.754 121.692 369.711 120.261C381.915 118.675 394.172 117.313 406.358 116.184C418.689 114.958 430.889 114.011 442.878 113.382C454.907 112.753 466.673 112.505 478.086 112.699C489.467 113.017 500.451 113.857 510.941 115.265" stroke="url(#paint5_linear_2079_1265)" stroke-width="2.55705" stroke-linecap="round" stroke-dasharray="6.39 3.84"/>
<path opacity="0.28" d="M515.102 131.87C524.694 134.015 533.5 136.662 541.495 139.799C549.337 143.218 556.334 147.14 562.504 151.53C571.114 158.814 584.279 176.071 589.11 185.986C592.194 193.026 594.839 200.512 597.197 208.416C599.855 216.652 602.463 225.37 605.217 234.574C608.583 244.165 612.354 254.318 616.663 265.022C621.835 276.142 627.707 287.858 634.311 300.128C641.742 312.742 649.775 325.823 658.247 339.27C667.042 352.807 675.792 366.478 684.115 380.068C691.829 393.329 698.371 406.173 703.32 418.413C706.623 429.855 707.692 440.404 706.259 449.939C702.749 458.482 696.703 466.023 688.289 472.597C678.457 478.49 667.063 483.833 654.688 488.834C642.616 493.971 630.905 499.396 620.255 505.425C611.789 512.424 605.398 520.483 601.402 529.733C600.297 540.284 601.411 551.666 604.249 563.643C608.69 576.326 613.571 588.998 618.168 601.303C622.309 613.376 624.917 624.491 625.537 634.389C624.253 643.374 620.467 650.881 614.238 656.868C605.907 661.824 595.47 665.384 583.346 667.679C569.945 669.258 555.66 669.907 540.965 669.783C526.159 669.44 511.694 668.619 497.896 667.469C484.854 666.476 472.852 665.292 461.982 663.96C452.196 662.961 443.509 661.825 435.858 660.54C426.154 659.017 410.66 655.279 403.881 652.928C397.305 650.809 382.558 645.851 373.861 643.211C367.61 641.897 360.716 640.518 353.178 639.073C345.332 638.218 336.816 637.356 327.688 636.485C318.257 636.193 308.246 635.85 297.711 635.425C286.954 635.461 276.017 635.276 264.977 634.82C253.866 634.584 242.771 633.907 231.765 632.723C220.82 631.525 210.073 629.673 199.601 627.145C189.333 624.415 179.446 620.93 170.021 616.701C160.933 612.16 152.403 606.875 144.538 600.894C137.13 594.614 130.463 587.686 124.638 580.226C119.364 572.537 114.982 564.395 111.57 555.904C108.743 547.298 106.866 538.418 105.955 529.385C105.535 520.292 105.961 511.062 107.192 501.787C108.627 492.436 110.635 482.992 113.076 473.491C115.351 463.831 117.78 454.044 120.216 444.12C122.097 433.932 123.746 423.541 125.097 412.974C125.696 402.083 125.945 391.006 125.863 379.822C125.198 368.375 124.424 356.922 123.71 345.552C122.893 334.163 122.521 323.031 122.812 312.295C123.634 301.812 125.485 291.877 128.53 282.592C132.473 273.711 137.596 265.726 143.789 258.574C150.694 251.741 158.388 245.615 166.645 240.106C175.075 234.648 183.673 229.629 192.249 224.938C200.423 220.051 208.277 215.343 215.721 210.8C225.61 203.503 242.233 188.946 249.389 181.834C255.983 174.568 270.019 161.426 278.092 155.736C283.955 152.024 290.437 148.745 297.532 145.911C305.078 143.041 313.248 140.592 321.988 138.526C331.201 136.407 340.909 134.65 351.013 133.199C361.515 131.674 372.32 130.439 383.331 129.466C394.601 128.413 405.974 127.631 417.341 127.112C428.872 126.541 440.299 126.26 451.533 126.285C462.821 126.347 473.848 126.769 484.525 127.595C495.162 128.542 505.382 129.947 515.09 131.864" stroke="url(#paint6_linear_2079_1265)" stroke-width="2.55705" stroke-linecap="round" stroke-dasharray="8.95 8.95"/>
<path opacity="0.32" d="M518.106 147.882C526.925 150.434 535.004 153.416 542.344 156.827C552.75 162.556 569.69 176.62 576.373 184.949C580.564 190.949 584.209 197.396 587.418 204.277C590.726 211.486 593.762 219.174 596.641 227.343C599.84 235.887 603.092 244.954 606.528 254.57C610.507 264.608 614.839 275.229 619.629 286.429C625.065 298.021 630.982 310.177 637.377 322.821C644.249 335.738 651.386 348.999 658.612 362.498C665.823 375.945 672.653 389.346 678.786 402.504C684.097 415.19 688.134 427.306 690.551 438.654C691.433 449.131 690.285 458.632 686.938 467.038C681.887 474.484 674.728 480.91 665.674 486.405C655.579 491.326 644.327 495.725 632.403 499.836C620.907 504.177 609.841 508.851 599.741 514.131C591.572 520.436 585.203 527.796 580.869 536.31C579.013 546.156 579.07 556.844 580.672 568.115C583.715 580.161 587.255 592.228 590.713 603.961C593.964 615.568 596.087 626.248 596.671 635.767C595.788 644.424 592.862 651.619 587.887 657.276C581.114 661.878 572.463 665.005 562.205 666.775C550.673 667.728 538.131 667.616 524.988 666.599C511.443 665.221 497.916 663.271 484.722 660.891C471.892 658.562 459.79 656.015 448.539 653.315C438.051 650.925 428.492 648.453 419.867 645.919C408.432 642.67 389.73 636.281 381.68 633.054C374.099 630.253 358.426 624.493 349.773 621.579C340.363 619.29 318.563 615.068 306.07 613.166C297.29 612.377 287.976 611.475 278.203 610.427C268.217 609.773 258.079 608.892 247.868 607.74C237.595 606.786 227.361 605.433 217.262 603.643C207.23 601.861 197.449 599.532 188.023 596.652C178.8 593.636 170.014 589.998 161.778 585.77C153.879 581.347 146.627 576.313 140.09 570.734C133.994 564.958 128.713 558.69 124.286 551.996C120.367 545.141 117.356 537.946 115.263 530.475C113.67 522.911 112.965 515.128 113.139 507.222C113.654 499.194 114.921 491.064 116.844 482.821C118.839 474.443 121.296 465.936 124.066 457.307C126.58 448.425 129.175 439.338 131.706 430.073C133.693 420.442 135.459 410.576 136.939 400.484C137.761 390.023 138.293 379.348 138.57 368.551C138.386 357.505 138.151 346.446 138.021 335.488C137.881 324.524 138.188 313.859 139.135 303.625C140.589 293.664 143.009 284.309 146.512 275.639C150.859 267.423 156.255 260.12 162.631 253.692C169.671 247.622 177.45 242.284 185.771 237.585C194.301 232.983 203.028 228.823 211.775 225.006C220.246 220.998 228.455 217.183 236.31 213.511C247.011 207.465 265.394 195.099 273.343 188.878C280.547 182.315 294.933 170.093 302.704 164.662C311.148 159.464 330.929 151.058 342.357 147.842C350.546 145.816 359.188 144.165 368.224 142.885C377.627 141.57 387.336 140.58 397.275 139.916C407.495 139.216 417.826 138.821 428.211 138.732C438.751 138.624 449.236 138.835 459.574 139.373C469.961 139.953 480.121 140.904 489.955 142.216C499.756 143.671 509.167 145.555 518.089 147.887" stroke="url(#paint7_linear_2079_1265)" stroke-width="2.55705" stroke-linecap="round" stroke-dasharray="6.39 6.39"/>
<path opacity="0.35" d="M521.412 164.147C529.49 167.019 536.939 170.31 543.728 173.999C553.394 180.1 569.491 194.807 576.107 203.456C580.309 209.655 584.119 216.332 587.628 223.484C591.23 230.967 594.652 238.972 598.017 247.5C601.649 256.394 605.344 265.858 609.23 275.881C613.502 286.299 618.042 297.296 622.88 308.829C628.115 320.689 633.624 333.025 639.323 345.754C645.221 358.623 651.075 371.706 656.727 384.844C662.099 397.804 666.865 410.548 670.761 422.876C673.766 434.627 675.474 445.677 675.614 455.858C674.414 465.144 671.409 473.409 666.543 480.574C660.319 486.848 652.412 492.149 643.001 496.573C632.91 500.567 621.97 504.085 610.596 507.404C599.748 511.04 589.347 515.02 579.827 519.618C571.992 525.282 565.678 531.938 561.09 539.717C558.587 548.814 557.739 558.716 558.238 569.214C560.026 580.497 562.347 591.845 564.73 602.929C567.09 613.954 568.664 624.163 569.109 633.265C567.324 645.102 553.346 659.95 541.354 662.954C531.691 663.618 520.977 663.119 509.562 661.6C497.579 659.617 485.363 656.926 473.212 653.702C461.119 650.408 449.452 646.825 438.37 643.035C427.74 639.487 417.824 635.862 408.664 632.215C400.047 628.927 392.137 625.647 384.848 622.367C374.781 618.071 356.817 609.973 348.3 606.098C339.723 602.82 321.353 596.584 311.22 593.638C304.071 592.095 296.516 590.478 288.534 588.771C280.292 587.475 271.642 586.057 262.634 584.488C253.41 583.237 244.11 581.771 234.823 580.071C225.458 578.564 216.192 576.71 207.14 574.494C198.142 572.311 189.464 569.695 181.169 566.641C173.088 563.511 165.515 559.914 158.522 555.853C148.85 549.356 133.75 534.054 128.539 525.431C124.845 516.347 122.277 496.9 123.271 486.696C124.412 479.703 126.171 472.57 128.473 465.297C130.738 457.819 133.361 450.159 136.198 442.301C138.752 434.128 141.313 425.703 143.82 417.031C145.798 407.95 147.575 398.589 149.125 388.965C150.116 378.956 150.883 368.729 151.501 358.379C151.747 347.778 152.015 337.191 152.457 326.713C152.916 316.277 153.845 306.153 155.394 296.483C157.419 287.113 160.328 278.378 164.24 270.353C168.89 262.811 174.499 256.193 180.978 250.473C188.068 245.124 195.84 240.54 204.127 236.6C212.648 232.792 221.386 229.455 230.193 226.463C238.819 223.327 247.271 220.369 255.429 217.542C263.117 214.358 270.434 211.21 277.34 208.09C286.737 202.779 303.416 191.863 311.126 186.468C318.597 180.877 334.465 170.885 343.235 166.66C352.725 162.709 374.184 156.769 386.103 154.763C394.456 153.542 403.115 152.696 411.999 152.19C421.117 151.695 430.396 151.544 439.743 151.739C449.222 151.941 458.695 152.488 468.07 153.381C477.478 154.341 486.718 155.663 495.694 157.378C504.619 159.197 513.207 161.453 521.401 164.141" stroke="url(#paint8_linear_2079_1265)" stroke-width="2.55705" stroke-linecap="round" stroke-dasharray="5.11 5.11"/>
<path opacity="0.39" d="M525.945 181.657C533.33 184.823 540.192 188.398 546.521 192.375C555.572 198.863 571.061 214.378 577.688 223.448C581.937 229.926 585.896 236.905 589.629 244.385C593.447 252.181 597.127 260.51 600.778 269.374C604.601 278.586 608.473 288.358 612.452 298.654C616.666 309.298 621.002 320.444 625.463 332.047C630.105 343.879 634.783 356.07 639.425 368.505C644.013 380.949 648.346 393.458 652.241 405.851C655.703 417.926 658.416 429.639 660.178 440.811C661.072 451.328 660.703 461.059 658.922 469.861C656.014 477.801 651.562 484.732 645.577 490.598C638.559 495.688 630.22 499.9 620.745 503.324C610.859 506.444 600.384 509.179 589.68 511.793C579.501 514.794 569.791 518.171 560.866 522.143C553.385 527.193 547.171 533.176 542.395 540.202C539.37 548.517 537.75 557.596 537.294 567.23C537.967 577.681 539.186 588.231 540.582 598.562C542.086 608.941 543.077 618.593 543.28 627.268C541.814 638.683 530.733 653.26 521.079 656.282C513.15 656.938 504.241 656.381 494.608 654.735C484.307 652.533 473.645 649.526 462.846 645.863C451.875 642.025 441.08 637.777 430.619 633.267C420.341 628.876 410.558 624.373 401.345 619.829C392.452 615.584 384.132 611.38 376.357 607.212C368.869 603.43 361.84 599.716 355.174 596.047C345.521 591.195 327.025 582.246 317.726 578.099C308.097 574.551 287.456 567.912 276.309 564.723C268.54 562.94 260.488 561.046 252.221 558.992C243.733 557.236 235.293 555.309 226.943 553.195C218.5 551.25 210.254 549.037 202.279 546.563C194.338 544.131 186.777 541.375 179.664 538.313C169.523 533.499 152.593 522.099 146.078 515.572C140.828 508.643 134.763 493.462 133.956 485.327C134.277 476.847 138.38 458.831 141.744 449.258C144.045 442.553 146.601 435.608 149.322 428.419C151.73 420.856 154.151 413.017 156.505 404.86C158.385 396.289 160.135 387.4 161.708 378.255C162.819 368.722 163.799 358.981 164.703 349.105C165.358 339.029 166.089 328.978 167.042 319.058C168.059 309.201 169.549 299.693 171.622 290.645C174.13 281.934 177.464 273.847 181.687 266.493C186.589 259.64 192.318 253.712 198.819 248.655C205.887 244.015 213.572 240.131 221.732 236.898C230.138 233.847 238.807 231.259 247.55 229.043C256.206 226.731 264.751 224.591 273.09 222.602C281.058 220.276 288.73 217.985 296.043 215.685C306.176 211.603 324.341 202.844 332.671 198.323C340.611 193.468 356.666 184.49 365.152 180.577C374.056 176.828 393.672 171.122 404.39 169.201C411.857 168.03 419.585 167.258 427.527 166.865C435.635 166.483 443.899 166.471 452.259 166.847C460.722 167.234 469.206 168.003 477.629 169.155C486.089 170.366 494.416 171.972 502.54 173.984C510.606 176.096 518.429 178.647 525.935 181.649" stroke="url(#paint9_linear_2079_1265)" stroke-width="2.55705" stroke-linecap="round" stroke-dasharray="10.23 12.79"/>
<path opacity="0.43" d="M531.91 201.319C541.828 206.67 559.379 219.761 567.071 227.55C576.761 238.869 585.223 252.165 592.806 267.399C600.49 283.76 607.856 302.268 615.149 322.678C622.791 344.057 630.255 366.929 637.055 390.462C643.013 413.564 646.809 435.833 647.283 455.93C644.58 473.389 637.086 487.343 624.535 497.277C609.023 504.693 590.189 509.582 569.937 513.316C560.485 515.781 551.462 518.611 543.148 522.028C536.033 526.483 529.968 531.814 525.095 538.092C521.644 545.599 519.385 553.816 518.138 562.56C517.846 572.116 518.09 581.792 518.583 591.311C519.885 610.534 519.106 626.442 514.933 637.698C507.166 645.66 495.225 648.19 480.079 645.944C462.315 641.251 443.299 633.512 424.413 623.903C405.446 614.291 387.839 604.225 371.967 594.192C356.698 585.462 342.793 577.103 329.896 569.098C316.858 562.619 303.957 556.374 290.903 550.251C284.05 547.709 277.069 545.142 269.968 542.557C262.618 540.264 255.145 537.899 247.574 535.452C239.805 533.238 232.181 530.913 224.739 528.492C217.191 526.215 209.919 523.753 202.978 521.136C189.172 516.035 177.225 510.03 167.579 503.215C158.754 496.225 152.68 488.369 149.525 479.925C147.306 471.052 147.798 461.498 150.659 451.409C153.621 440.432 158.049 428.503 163.258 415.577C167.261 401.07 171.192 385.226 174.732 368.244C176.863 349.86 179.051 330.955 181.855 312.372C183.373 303.171 185.328 294.325 187.856 285.95C190.784 277.933 194.453 270.545 198.922 263.873C203.978 257.716 209.767 252.452 216.224 248.042C223.196 244.07 230.708 240.827 238.664 238.264C255.271 233.644 272.458 230.593 289.385 228.378C305.309 225.075 320.143 221.75 333.797 218.311C346.079 213.251 357.688 208.29 368.98 203.78C379.876 198.296 391.258 193.78 403.329 190.505C415.819 186.915 429.264 184.808 443.441 184.266C458.063 183.716 473.165 184.75 488.273 187.416C495.831 188.812 503.315 190.632 510.662 192.889C517.944 195.241 525.034 198.036 531.892 201.321" stroke="url(#paint10_linear_2079_1265)" stroke-width="2.55705" stroke-linecap="round" stroke-dasharray="6.39 12.79"/>
<path opacity="0.47" d="M538.883 223.724C551.061 231.154 561.902 240.405 571.466 251.414C580.604 263.151 588.73 276.868 596.034 292.446C603.247 308.939 609.954 327.353 616.198 347.318C622.311 367.835 627.675 389.336 631.782 410.895C634.679 431.625 635.158 451.04 632.394 467.992C626.912 482.384 617.373 493.426 603.829 500.828C588.278 506.296 570.347 509.717 551.595 512.35C534.869 516.971 520.362 523.803 509.348 533.756C502.962 548.248 499.959 564.732 498.931 581.649C498.833 599.406 497.533 614.372 493.942 625.302C487.693 633.464 478.212 636.612 466.038 635.167C451.453 631.214 435.416 623.993 419.023 614.579C401.984 604.746 385.642 594.111 370.456 583.302C355.379 573.441 341.381 563.922 328.346 554.864C315.025 547.083 302.087 539.715 289.361 532.679C275.833 526.772 262.187 520.983 248.587 515.131C234.243 510.036 220.929 504.787 208.969 499.326C196.956 494.064 186.891 488.313 179.047 482.16C171.77 475.83 167.038 468.987 164.897 461.748C163.348 454.015 164.125 445.681 166.886 436.749C169.519 426.778 173.362 415.774 177.891 403.687C181.347 389.992 184.879 374.977 188.32 358.886C190.719 341.558 193.457 323.848 197.013 306.581C201.08 289.779 207.217 274.756 216 262.329C226.793 251.89 239.986 244.772 254.998 240.512C271.058 237.191 287.785 235.472 304.44 234.668C320.435 233.001 335.644 231.37 349.848 229.577C362.907 226.249 375.251 222.864 387.091 219.683C398.405 215.414 409.861 211.839 421.625 209.283C433.512 206.274 446.026 204.597 459.016 204.406C472.25 204.15 485.851 205.509 499.461 208.541C513.008 211.744 526.257 216.75 538.874 223.715" stroke="url(#paint11_linear_2079_1265)" stroke-width="2.55705" stroke-linecap="round" stroke-dasharray="6.39 6.39"/>
<path opacity="0.51" d="M545.911 248.862C556.94 256.652 566.87 266.286 575.68 277.645C584.074 289.594 591.512 303.415 598.087 318.904C604.388 335.047 609.93 352.783 614.654 371.62C618.914 390.627 621.989 410.07 623.452 429.043C623.588 446.921 621.26 463.155 615.956 476.799C608.473 488.155 597.698 496.43 583.846 501.556C568.727 505.328 551.965 507.515 534.822 509.253C519.492 513.058 506.012 518.914 495.307 527.555C488.287 540.361 484.093 554.969 481.735 570.069C480.353 586.233 478.429 600.146 475.074 610.648C469.884 618.982 462.315 622.815 452.631 622.389C440.856 619.58 427.68 613.435 413.853 604.878C399.096 595.539 384.526 585.061 370.608 574.143C356.421 563.771 342.967 553.569 330.329 543.789C317.259 535.005 304.65 526.685 292.474 518.852C279.544 511.925 266.834 505.283 254.5 498.836C241.469 492.99 229.686 487.319 219.374 481.747C208.934 476.339 200.395 470.784 193.947 465.12C185.904 456.19 181.431 435.901 184.109 423.9C186.189 414.562 189.339 404.175 193.118 392.666C196.03 379.638 199.206 365.385 202.549 350.182C205.192 333.976 208.419 317.543 212.591 301.657C217.325 286.366 224 272.824 233.021 261.797C243.738 252.685 256.516 246.751 270.886 243.54C286.225 241.366 302.28 240.83 318.402 241.276C334.188 241.131 349.425 241.098 363.88 240.953C377.44 239.432 390.34 237.762 402.648 236.137C414.409 233.375 426.061 231.067 437.72 229.539C449.304 227.463 461.191 226.501 473.321 226.913C485.506 227.156 497.905 228.951 510.256 232.428C522.464 236.015 534.435 241.434 545.911 248.862Z" stroke="url(#paint12_linear_2079_1265)" stroke-width="2.55705" stroke-linecap="round" stroke-dasharray="7.67 12.79"/>
<path opacity="0.54" d="M551.696 276.093C561.627 284.17 570.526 293.989 578.385 305.395C585.81 317.263 592.252 330.771 597.729 345.647C602.797 360.933 606.874 377.366 609.846 394.437C612.172 411.359 613.029 428.214 612.132 444.191C609.983 458.953 605.503 471.894 598.446 482.316C589.737 490.814 578.432 496.599 564.844 499.784C550.561 502.148 535.18 503.373 519.669 504.408C505.734 507.52 493.278 512.496 482.99 519.901C475.565 531.04 470.473 543.773 466.999 557.038C464.486 571.516 461.895 584.232 458.528 594.192C453.971 602.536 447.782 607.008 440.035 607.664C430.619 606.184 419.962 601.467 408.597 594.231C396.197 586.001 383.638 576.345 371.368 565.953C358.565 555.728 346.191 545.431 334.421 535.397C322.121 526.058 310.25 517.132 298.875 508.728C286.815 501.026 275.133 493.712 264.032 486.757C252.32 480.286 241.922 474.227 232.993 468.507C223.886 462.891 216.56 457.392 211.104 451.957C204.146 443.388 199.957 424.141 201.906 412.625C203.378 403.619 205.807 393.571 208.896 382.471C211.333 370.017 214.214 356.481 217.494 342.206C220.372 327.174 224.006 312.079 228.691 297.66C233.935 283.908 240.949 271.876 250.037 262.233C260.543 254.419 272.791 249.57 286.377 247.306C300.858 246.126 316.053 246.591 331.436 248.12C346.707 249.315 361.656 250.742 376.015 252.154C389.76 252.409 402.925 252.496 415.504 252.534C427.579 251.492 439.408 250.719 451.017 250.501C462.437 249.656 473.909 249.72 485.381 250.961C496.774 251.972 508.199 254.393 519.479 258.408C530.559 262.478 541.379 268.311 551.696 276.093Z" stroke="url(#paint13_linear_2079_1265)" stroke-width="2.55705" stroke-linecap="round" stroke-dasharray="7.67 8.95"/>
<path opacity="0.58" d="M555.006 304.179C563.828 312.434 571.611 322.202 578.329 333.302C584.637 344.733 589.882 357.479 594.049 371.213C597.726 385.133 600.244 399.758 601.48 414.554C602.01 428.974 600.981 442.937 598.205 455.74C594.342 467.362 588.417 477.158 580.367 484.619C571.139 490.575 559.91 494.268 547.056 495.892C533.887 497.157 519.999 497.657 506.135 498.171C493.575 500.705 482.138 504.871 472.352 511.119C464.737 520.653 458.987 531.574 454.653 543.016C451.183 555.742 447.924 567.164 444.373 576.403C437.476 587.026 416.643 589.399 403.143 582.181C392.935 575.47 382.433 567.13 371.949 557.797C360.816 548.341 349.877 538.527 339.328 528.747C328.185 519.39 317.395 510.29 307.078 501.628C296.121 493.482 285.609 485.73 275.73 478.403C265.317 471.429 256.182 465.021 248.428 459.079C237.272 450.374 223.133 433.419 220.197 424.449C218.758 417.77 218.74 410.55 219.92 402.661C220.827 393.758 222.651 383.897 225.184 373.093C227.26 361.18 229.947 348.405 233.222 335.104C236.314 321.295 240.278 307.6 245.33 294.672C250.922 282.491 258.114 271.966 267.128 263.668C277.26 257.085 288.861 253.239 301.587 251.791C315.092 251.452 329.267 252.755 343.696 255.162C358.182 257.47 372.524 260.164 386.452 262.948C400.007 264.844 413.088 266.624 425.64 268.325C437.807 269.069 449.622 269.954 461.095 271.203C472.344 271.833 483.451 273.155 494.335 275.436C505.099 277.444 515.698 280.664 526 285.291C536.097 289.93 545.828 296.175 555.006 304.179Z" stroke="url(#paint14_linear_2079_1265)" stroke-width="2.55705" stroke-linecap="round" stroke-dasharray="2.56 12.79"/>
<path opacity="0.62" d="M554.837 331.46C562.534 339.729 569.139 349.185 574.654 359.623C579.767 370.287 583.753 381.866 586.559 394.035C588.896 406.204 589.954 418.655 589.671 430.863C588.736 442.616 586.264 453.621 582.182 463.332C577.254 472.009 570.573 478.957 562.178 483.878C553.032 487.726 542.399 489.77 530.595 490.228C518.728 490.707 506.392 490.717 494.143 490.883C482.916 492.938 472.501 496.385 463.295 501.558C455.671 509.567 449.529 518.722 444.575 528.396C440.337 539.339 436.482 549.348 432.648 557.701C426.065 568 408.579 573.142 397.635 568.332C389.338 563.321 380.693 556.599 371.955 548.696C362.554 540.478 353.181 531.656 344.036 522.589C334.311 513.716 324.824 504.9 315.733 496.346C306.075 488.139 296.833 480.227 288.193 472.681C279.067 465.393 271.121 458.688 264.395 452.454C254.661 443.279 242.039 425.487 239.13 416.105C237.59 409.18 237.234 401.75 237.947 393.717C238.449 384.79 239.833 375.058 241.977 364.591C243.842 353.238 246.433 341.271 249.741 329.016C253.014 316.488 257.228 304.252 262.525 292.844C268.29 282.214 275.502 273.161 284.269 266.166C293.922 260.742 304.779 257.794 316.552 257.045C328.957 257.392 341.997 259.334 355.311 262.413C368.767 265.588 382.214 269.296 395.409 273.205C408.39 276.501 421.027 279.785 433.226 283.022C445.129 285.473 456.692 287.997 467.814 290.756C478.759 292.939 489.403 295.629 499.67 299.03C509.804 302.169 519.619 306.28 528.982 311.541C538.144 316.784 546.812 323.39 554.837 331.46Z" stroke="url(#paint15_linear_2079_1265)" stroke-width="2.55705" stroke-linecap="round" stroke-dasharray="3.84 14.06"/>
<path opacity="0.66" d="M550.665 356.118C557.244 364.205 562.69 373.099 567.008 382.597C570.963 392.226 573.747 402.338 575.326 412.654C576.472 422.864 576.351 432.967 574.92 442.573C572.938 451.705 569.557 459.915 564.756 466.831C559.36 472.94 552.515 477.514 544.368 480.414C535.754 482.629 526.037 483.471 515.515 483.152C505.061 483.127 494.264 482.854 483.547 482.812C473.619 484.461 464.226 487.272 455.651 491.478C448.209 498.047 441.897 505.566 436.543 513.523C431.769 522.705 427.42 531.232 423.28 538.557C416.747 548.147 401.427 555.197 392.396 552.502C385.598 549.145 378.532 544.118 371.339 537.807C363.57 531.118 355.745 523.593 348.038 515.602C339.793 507.639 331.7 499.491 323.921 491.378C315.646 483.472 307.712 475.687 300.305 468.119C292.5 460.726 285.679 453.8 279.897 447.302C271.499 437.643 260.311 418.667 257.524 408.697C255.967 401.441 255.448 393.75 255.866 385.557C256.168 376.642 257.312 367.115 259.229 357.039C261.043 346.36 263.626 335.302 266.988 324.186C270.426 312.992 274.788 302.223 280.194 292.346C285.99 283.232 293.054 275.597 301.445 269.837C310.493 265.464 320.5 263.324 331.249 263.167C342.515 264.038 354.314 266.425 366.382 269.945C378.615 273.725 390.933 278.13 403.1 282.876C415.178 287.282 427.036 291.763 438.505 296.26C449.815 300.18 460.786 304.163 471.314 308.285C481.691 311.94 491.695 315.942 501.226 320.438C510.63 324.696 519.596 329.671 527.989 335.498C536.193 341.316 543.81 348.161 550.665 356.118Z" stroke="url(#paint16_linear_2079_1265)" stroke-width="2.55705" stroke-linecap="round" stroke-dasharray="11.51 3.84"/>
<path opacity="0.7" d="M542.578 376.485C548.053 384.216 552.389 392.337 555.607 400.688C558.52 409.103 560.277 417.613 560.881 425.983C560.632 438.144 553.532 458.88 546.671 466.375C541.3 470.407 534.788 473.168 527.281 474.574C519.527 475.665 510.955 475.717 501.806 474.992C492.772 474.702 483.478 474.308 474.229 474.171C465.512 475.501 457.124 477.746 449.263 481.06C442.148 486.321 435.88 492.309 430.342 498.656C422.921 509.636 409.588 527.837 402.898 533.165C395.564 535.753 379.28 531.06 370.448 524.571C364.052 519.436 357.609 513.373 351.234 506.638C344.423 499.841 337.688 492.642 331.202 485.237C324.309 477.95 317.69 470.555 311.496 463.16C304.969 455.894 299.258 448.928 294.402 442.218C289.363 435.497 285.266 428.902 282.106 422.354C278.872 415.614 276.594 408.722 275.245 401.645C273.848 394.161 273.342 386.289 273.696 378.053C273.983 369.294 275.091 360.106 276.956 350.608C278.799 340.735 281.442 330.7 284.866 320.799C288.396 310.995 292.831 301.716 298.205 293.332C303.884 285.694 310.647 279.391 318.516 274.796C326.869 271.371 335.965 269.921 345.639 270.235C355.689 271.474 366.177 274.119 376.908 277.877C387.802 281.983 398.809 286.801 409.732 292.035C420.648 297.148 431.409 302.46 441.862 307.863C452.241 312.899 462.307 318.014 471.958 323.224C481.49 328.095 490.628 333.189 499.251 338.579C507.759 343.782 515.758 349.471 523.12 355.711C530.324 361.93 536.866 368.847 542.578 376.485Z" stroke="url(#paint17_linear_2079_1265)" stroke-width="2.55705" stroke-linecap="round" stroke-dasharray="2.56 7.67"/>
<path opacity="0.73" d="M531.172 391.367C539.781 405.827 544.039 420.289 544.129 433.49C543.125 446.188 537.789 456.283 528.645 462.354C518.48 467.123 504.979 468.056 489.415 466.016C474.286 466.022 458.637 466.98 443.924 470.473C431.101 480.086 420.35 490.848 411.226 500.341C402.2 510.58 393.332 515.776 384.529 515.327C374.502 513.051 364.119 505.756 354.04 494.966C342.567 483.78 331.457 470.62 321.7 456.516C310.894 442.739 302.91 429.169 297.894 415.8C292.603 401.847 290.525 386.948 291.482 371.212C292.398 354.23 296.329 336.351 303.179 319.116C310.471 302.655 321.151 289.21 335.346 281.125C350.779 277.021 368.393 279.321 386.894 286.326C405.956 294.964 425.299 305.965 443.69 317.824C461.977 329.006 479.179 340.66 494.319 352.7C509.109 364.301 521.745 377.16 531.172 391.367Z" stroke="url(#paint18_linear_2079_1265)" stroke-width="2.55705" stroke-linecap="round" stroke-dasharray="7.67 14.06"/>
<path opacity="0.77" d="M517.45 400.27C524.178 413.292 526.989 425.24 526.208 435.261C524.629 444.906 519.468 451.833 511.273 455.351C502.499 458.308 491.147 458.405 478.224 456.455C465.632 456.528 452.366 457.311 439.453 459.811C427.637 466.978 417.228 474.878 408.19 481.903C399.288 490.013 390.827 494.526 382.845 494.762C374.102 493.943 365.371 488.878 357.112 480.406C347.842 471.541 339.008 460.288 331.351 447.392C322.9 434.696 316.769 421.533 313.064 408.246C309.145 394.602 307.917 380.115 309.321 365.206C310.768 349.695 314.916 333.943 321.684 319.334C328.832 305.726 338.837 294.993 351.679 288.95C365.277 286.119 380.483 288.727 396.243 295.421C412.405 303.768 428.794 314.531 444.368 326.352C459.953 338.052 474.551 350.3 487.262 362.624C499.7 374.736 510.087 387.397 517.45 400.27Z" stroke="url(#paint19_linear_2079_1265)" stroke-width="2.55705" stroke-linecap="round" stroke-dasharray="1.28 10.23"/>
<path opacity="0.81" d="M502.619 403.471C508.533 419.674 504.235 441.676 495.042 446.092C487.813 448.079 478.603 447.991 468.14 446.486C457.863 446.765 446.818 447.427 435.688 449.074C425.136 454.138 415.48 459.535 406.893 464.255C398.39 470.126 390.439 473.499 383.163 473.758C375.438 473.559 368.02 469.981 361.263 463.369C353.812 456.468 346.918 447.093 341.178 435.719C334.829 424.43 330.462 412.263 328.098 399.746C325.581 387.085 325.3 373.752 327.234 360.344C329.24 346.821 333.547 333.508 340.082 321.635C346.859 310.785 355.952 302.551 367.242 298.288C378.947 296.508 391.738 299.19 404.798 305.299C418.098 312.885 431.511 322.771 444.211 333.769C456.914 345.026 468.754 356.876 478.949 368.643C488.934 380.392 497.088 392.192 502.619 403.471Z" stroke="url(#paint20_linear_2079_1265)" stroke-width="2.55705" stroke-linecap="round" stroke-dasharray="14.06 6.39"/>
<path opacity="0.85" d="M487.772 401.996C489.743 423.821 470.897 437.038 459.026 436.223C450.817 436.721 441.833 437.314 432.535 438.269C423.449 441.567 414.899 444.829 407.145 447.532C395.787 452.255 375.792 451.467 367.171 444.839C361.253 439.442 356.02 431.815 351.926 422.159C347.425 412.552 344.629 401.918 343.492 390.891C342.24 379.861 342.831 368.357 345.213 357.064C347.647 345.919 351.949 335.274 357.992 326.14C364.168 317.906 372.126 311.924 381.71 309.158C391.455 308.188 401.878 310.739 412.369 316.03C422.929 322.51 433.478 331.005 443.38 340.573C453.266 350.541 462.398 361.116 470.147 371.584C477.748 382.118 483.832 392.48 487.772 401.996Z" stroke="url(#paint21_linear_2079_1265)" stroke-width="2.55705" stroke-linecap="round" stroke-dasharray="11.51 12.79"/>
<path opacity="0.89" d="M473.694 397.415C478.226 412.735 475.215 421.567 466.936 423.915C458.13 427.438 444.88 427.978 429.906 427.324C415.058 432.512 401.265 435.391 390.399 433.608C378.89 432.299 369.335 423.637 364.197 408.072C358.023 392.528 357.896 373.579 363.087 355.869C368.296 339.117 379.262 325.732 394.741 321.465C410.313 321.928 427.268 332.287 441.947 347.268C456.437 363.737 468.254 382.099 473.694 397.415Z" stroke="url(#paint22_linear_2079_1265)" stroke-width="2.55705" stroke-linecap="round" stroke-dasharray="6.39 2.56"/>
<path opacity="0.92" d="M460.759 391.537C462.289 406.465 443.862 416.369 427.817 416.203C416.449 418.709 405.659 418.914 397.149 416.098C388.262 413.891 381.284 406.878 378.205 395.212C374.539 383.504 375.641 369.67 380.574 357.299C385.413 345.742 394.264 337.117 405.953 335.089C417.529 335.795 429.623 343.401 439.754 354.352C449.677 366.367 457.493 380.028 460.759 391.537Z" stroke="url(#paint23_linear_2079_1265)" stroke-width="2.55705" stroke-linecap="round" stroke-dasharray="8.95 10.23"/>
<path opacity="0.96" d="M448.81 386.11C451.362 401.388 441.12 407.531 426.316 404.822C410.852 407.635 396.471 400.934 393.648 385.442C389.824 369.815 399.316 352.092 415.041 349.787C430.173 352.445 445.332 370.705 448.81 386.11Z" stroke="url(#paint24_linear_2079_1265)" stroke-width="2.55705" stroke-linecap="round" stroke-dasharray="11.51 11.51"/>
<defs>
<linearGradient id="paint0_linear_2079_1265" x1="38619.1" y1="21.9954" x2="38619.1" y2="76211.6" gradientUnits="userSpaceOnUse">
<stop stop-color="#43AC20"/>
<stop offset="1" stop-color="#76DF53"/>
</linearGradient>
<linearGradient id="paint1_linear_2079_1265" x1="37163.3" y1="2631.4" x2="31999.7" y2="75739.6" gradientUnits="userSpaceOnUse">
<stop stop-color="#43AC20"/>
<stop offset="1" stop-color="#76DF53"/>
</linearGradient>
<linearGradient id="paint2_linear_2079_1265" x1="35530.2" y1="5033.3" x2="25636.7" y2="74723.2" gradientUnits="userSpaceOnUse">
<stop stop-color="#43AC20"/>
<stop offset="1" stop-color="#76DF53"/>
</linearGradient>
<linearGradient id="paint3_linear_2079_1265" x1="33721.2" y1="7211.26" x2="19552.4" y2="73190.3" gradientUnits="userSpaceOnUse">
<stop stop-color="#43AC20"/>
<stop offset="1" stop-color="#76DF53"/>
</linearGradient>
<linearGradient id="paint4_linear_2079_1265" x1="31761.6" y1="9151.48" x2="13789.8" y2="71172.3" gradientUnits="userSpaceOnUse">
<stop stop-color="#43AC20"/>
<stop offset="1" stop-color="#76DF53"/>
</linearGradient>
<linearGradient id="paint5_linear_2079_1265" x1="29701.3" y1="10851.4" x2="8411.05" y2="68716.6" gradientUnits="userSpaceOnUse">
<stop stop-color="#43AC20"/>
<stop offset="1" stop-color="#76DF53"/>
</linearGradient>
<linearGradient id="paint6_linear_2079_1265" x1="27573.4" y1="12311.1" x2="3458.1" y2="65870.1" gradientUnits="userSpaceOnUse">
<stop stop-color="#43AC20"/>
<stop offset="1" stop-color="#76DF53"/>
</linearGradient>
<linearGradient id="paint7_linear_2079_1265" x1="25399.4" y1="13529.8" x2="-1039.98" y2="62674.1" gradientUnits="userSpaceOnUse">
<stop stop-color="#43AC20"/>
<stop offset="1" stop-color="#76DF53"/>
</linearGradient>
<linearGradient id="paint8_linear_2079_1265" x1="23060.6" y1="14419.6" x2="-5203.2" y2="59094.1" gradientUnits="userSpaceOnUse">
<stop stop-color="#43AC20"/>
<stop offset="1" stop-color="#76DF53"/>
</linearGradient>
<linearGradient id="paint9_linear_2079_1265" x1="20844.3" y1="15135.3" x2="-8701.46" y2="55268.9" gradientUnits="userSpaceOnUse">
<stop stop-color="#43AC20"/>
<stop offset="1" stop-color="#76DF53"/>
</linearGradient>
<linearGradient id="paint10_linear_2079_1265" x1="18760.9" y1="15711.4" x2="-11648.5" y2="51442.3" gradientUnits="userSpaceOnUse">
<stop stop-color="#43AC20"/>
<stop offset="1" stop-color="#76DF53"/>
</linearGradient>
<linearGradient id="paint11_linear_2079_1265" x1="16560.2" y1="15930" x2="-14253.4" y2="47351.9" gradientUnits="userSpaceOnUse">
<stop stop-color="#43AC20"/>
<stop offset="1" stop-color="#76DF53"/>
</linearGradient>
<linearGradient id="paint12_linear_2079_1265" x1="14432.2" y1="15928.1" x2="-16296.7" y2="43133.8" gradientUnits="userSpaceOnUse">
<stop stop-color="#43AC20"/>
<stop offset="1" stop-color="#76DF53"/>
</linearGradient>
<linearGradient id="paint13_linear_2079_1265" x1="12394" y1="15714.6" x2="-17829.5" y2="38889.1" gradientUnits="userSpaceOnUse">
<stop stop-color="#43AC20"/>
<stop offset="1" stop-color="#76DF53"/>
</linearGradient>
<linearGradient id="paint14_linear_2079_1265" x1="10371.6" y1="15162.9" x2="-18850.5" y2="34460.6" gradientUnits="userSpaceOnUse">
<stop stop-color="#43AC20"/>
<stop offset="1" stop-color="#76DF53"/>
</linearGradient>
<linearGradient id="paint15_linear_2079_1265" x1="8551.43" y1="14516" x2="-19403.8" y2="30268" gradientUnits="userSpaceOnUse">
<stop stop-color="#43AC20"/>
<stop offset="1" stop-color="#76DF53"/>
</linearGradient>
<linearGradient id="paint16_linear_2079_1265" x1="6883.49" y1="13709" x2="-19457.8" y2="26194.3" gradientUnits="userSpaceOnUse">
<stop stop-color="#43AC20"/>
<stop offset="1" stop-color="#76DF53"/>
</linearGradient>
<linearGradient id="paint17_linear_2079_1265" x1="5414.91" y1="12851.3" x2="-19077.1" y2="22410.2" gradientUnits="userSpaceOnUse">
<stop stop-color="#43AC20"/>
<stop offset="1" stop-color="#76DF53"/>
</linearGradient>
<linearGradient id="paint18_linear_2079_1265" x1="4043.12" y1="11671.2" x2="-18208.4" y2="18593.3" gradientUnits="userSpaceOnUse">
<stop stop-color="#43AC20"/>
<stop offset="1" stop-color="#76DF53"/>
</linearGradient>
<linearGradient id="paint19_linear_2079_1265" x1="2868.03" y1="10378.7" x2="-16955.6" y2="15042.9" gradientUnits="userSpaceOnUse">
<stop stop-color="#43AC20"/>
<stop offset="1" stop-color="#76DF53"/>
</linearGradient>
<linearGradient id="paint20_linear_2079_1265" x1="1890.01" y1="8964.78" x2="-15138" y2="11722.7" gradientUnits="userSpaceOnUse">
<stop stop-color="#43AC20"/>
<stop offset="1" stop-color="#76DF53"/>
</linearGradient>
<linearGradient id="paint21_linear_2079_1265" x1="1116.1" y1="7359.93" x2="-13098.3" y2="8643.54" gradientUnits="userSpaceOnUse">
<stop stop-color="#43AC20"/>
<stop offset="1" stop-color="#76DF53"/>
</linearGradient>
<linearGradient id="paint22_linear_2079_1265" x1="584.202" y1="5954.39" x2="-11001" y2="6180.89" gradientUnits="userSpaceOnUse">
<stop stop-color="#43AC20"/>
<stop offset="1" stop-color="#76DF53"/>
</linearGradient>
<linearGradient id="paint23_linear_2079_1265" x1="252.906" y1="4470.37" x2="-8281.68" y2="4035.04" gradientUnits="userSpaceOnUse">
<stop stop-color="#43AC20"/>
<stop offset="1" stop-color="#76DF53"/>
</linearGradient>
<linearGradient id="paint24_linear_2079_1265" x1="120.756" y1="3082.32" x2="-5621.02" y2="2381.38" gradientUnits="userSpaceOnUse">
<stop stop-color="#43AC20"/>
<stop offset="1" stop-color="#76DF53"/>
</linearGradient>
</defs>
</svg>
