<svg width="177" height="71" viewBox="0 0 177 71" fill="none" xmlns="http://www.w3.org/2000/svg">
<path d="M104.595 14.9295C104.595 14.9295 104.937 15.0661 105.622 15.3391C106.307 15.6122 106.991 15.9551 107.674 16.3681C108.358 16.781 108.941 17.2317 109.423 17.7202C109.904 18.2086 110.352 18.7603 110.764 19.3751C111.176 19.9899 111.548 20.5755 111.88 21.1321C112.212 21.6886 112.545 22.3312 112.878 23.0597C113.211 23.7882 113.441 24.5493 113.569 25.3431C113.698 26.1368 113.77 26.9945 113.787 27.916C113.804 28.8376 113.817 29.7815 113.826 30.7479C113.836 31.7142 113.753 32.627 113.58 33.4861C113.406 34.3453 113.255 35.0995 113.128 35.7489C113.001 36.3983 112.866 37.0619 112.725 37.7398C112.583 38.4177 112.421 39.1245 112.239 39.86C112.058 40.5956 111.825 41.2741 111.541 41.8955C111.257 42.5169 110.96 43.1576 110.65 43.8177C110.339 44.4777 110.01 45.0799 109.664 45.6245C109.318 46.169 108.955 46.7545 108.575 47.3811C108.196 48.0077 107.798 48.6148 107.383 49.2025C106.967 49.7901 106.565 50.3923 106.177 51.009C105.788 51.6257 105.424 52.2011 105.085 52.7352C104.747 53.2692 104.272 53.9697 103.661 54.8365C103.051 55.7034 102.477 56.3565 101.94 56.7959C101.402 57.2352 100.73 57.6911 99.9229 58.1636C99.1156 58.6361 98.2606 58.9793 97.3578 59.1931C96.455 59.4069 95.3722 59.5925 94.1094 59.7498C92.8465 59.9071 91.6363 59.9252 90.4787 59.8041C89.3211 59.683 88.1809 59.4883 87.0582 59.22C85.9355 58.9516 84.8982 58.6295 83.9464 58.2537C82.9946 57.8778 82.0085 57.4349 80.9879 56.925C79.9674 56.415 79.0799 55.8782 78.3255 55.3146C77.5711 54.751 76.8001 54.1668 76.0125 53.5621C75.2249 52.9574 74.5255 52.348 73.9143 51.7338C73.3031 51.1197 72.6978 50.4364 72.0984 49.684C71.499 48.9316 70.9299 48.1554 70.391 47.3554C69.8521 46.5555 69.4415 45.8095 69.1592 45.1176C68.8769 44.4256 68.5935 43.6446 68.3091 42.7746C68.0246 41.9046 67.7694 40.9818 67.5435 40.0062C67.3175 39.0307 67.1265 38.228 66.9704 37.5981C66.8144 36.9683 66.6794 36.216 66.5653 35.3412C66.4512 34.4665 66.3853 33.5726 66.3676 32.6597C66.3499 31.7467 66.3423 30.8631 66.3448 30.0088C66.3473 29.1544 66.4741 28.2942 66.7252 27.4279C66.9762 26.5617 67.3092 25.7209 67.7241 24.9056C68.139 24.0903 68.5265 23.3751 68.8866 22.7601C69.2468 22.1451 69.6263 21.5948 70.0253 21.1093C70.4243 20.6237 70.8997 20.1222 71.4514 19.6046C72.0031 19.087 72.5536 18.6367 73.1027 18.2536C73.6519 17.8705 74.2915 17.4625 75.0216 17.0295C75.7517 16.5966 76.4563 16.1597 77.1355 15.719C77.8148 15.2783 78.5155 14.9039 79.2377 14.5959C79.96 14.2879 80.6981 14.0213 81.4521 13.7959C82.2061 13.5706 82.9973 13.3324 83.8256 13.0815C84.6539 12.8305 85.3965 12.6605 86.0534 12.5715C86.7103 12.4826 87.4082 12.3452 88.1472 12.1595C88.8861 11.9738 89.6563 11.8709 90.4577 11.8509C91.2591 11.8309 92.0883 11.8236 92.9455 11.8289C93.8026 11.8342 94.6134 11.8434 95.3777 11.8564C96.142 11.8694 96.8355 11.9771 97.4582 12.1794C98.0809 12.3818 98.6944 12.6064 99.2986 12.8532C99.9029 13.1 100.461 13.4258 100.973 13.8305C101.484 14.2353 101.855 14.5011 102.083 14.6281C102.312 14.7551 102.556 14.8422 102.813 14.8895C103.071 14.9368 103.329 14.9417 103.588 14.9043C103.847 14.8668 104.093 14.789 104.327 14.6708C104.56 14.5526 104.769 14.4002 104.953 14.2136C105.136 14.027 105.285 13.816 105.4 13.5806C105.514 13.3451 105.588 13.0976 105.621 12.8379C105.654 12.5783 105.645 12.3201 105.594 12.0634C105.542 11.8067 105.451 11.565 105.321 11.3382C105.19 11.1113 105.027 10.9113 104.83 10.7381C104.634 10.5649 104.415 10.4275 104.174 10.326C103.933 10.2246 103.681 10.1643 103.42 10.1451C103.159 10.126 102.902 10.1491 102.648 10.2143C102.395 10.2796 102.159 10.3836 101.939 10.5264C101.72 10.6692 101.529 10.8432 101.367 11.0486C101.204 11.254 101.079 11.4799 100.991 11.7263C100.902 11.9728 100.856 12.2269 100.851 12.4886C100.846 12.7503 100.883 13.006 100.962 13.2556C101.041 13.5052 101.157 13.7357 101.312 13.947C101.466 14.1584 101.65 14.3395 101.864 14.4905C102.078 14.6414 102.31 14.7543 102.561 14.8291C102.812 14.9039 103.068 14.9366 103.33 14.9274C103.592 14.9181 103.845 14.8673 104.09 14.775C104.335 14.6827 104.559 14.5538 104.761 14.3881C104.964 14.2224 105.135 14.0287 105.274 13.8069C105.413 13.5852 105.513 13.3471 105.574 13.0925C105.635 12.838 105.654 12.5803 105.631 12.3196C105.607 12.0589 105.543 11.8087 105.438 11.5691C105.332 11.3295 105.191 11.113 105.015 10.9196C104.838 10.7262 104.75 10.6296 104.75 10.6298C104.751 10.6299 104.658 10.5705 104.472 10.4516C104.286 10.3327 103.9 10.0794 103.315 9.69173C102.73 9.30406 101.981 8.92436 101.069 8.55261C100.157 8.18086 99.3376 7.90615 98.6108 7.72849C97.8839 7.55082 97.1683 7.43873 96.4638 7.39222C95.7594 7.34571 95.058 7.32741 94.3597 7.33733C93.6614 7.34725 92.8689 7.36035 91.9824 7.37663C91.0958 7.39291 90.3035 7.4255 89.6053 7.47441C88.9072 7.52332 88.1826 7.64295 87.4318 7.8333C86.6809 8.02365 85.8952 8.18484 85.0746 8.31687C84.2541 8.44891 83.4399 8.63502 82.6321 8.8752C81.8243 9.11539 81.0202 9.3539 80.2197 9.59073C79.4192 9.82755 78.6463 10.0969 77.901 10.3987C77.1557 10.7005 76.4529 11.0527 75.7927 11.4553C75.1325 11.8578 74.4798 12.2763 73.8347 12.7108C73.1895 13.1453 72.4513 13.6145 71.62 14.1184C70.7888 14.6224 70.0571 15.1459 69.4252 15.689C68.7932 16.2321 68.157 16.838 67.5167 17.5065C66.8763 18.1751 66.3264 18.8541 65.867 19.5436C65.4075 20.2331 64.9935 20.9204 64.625 21.6053C64.2565 22.2902 63.8969 23.0626 63.5464 23.9225C63.1958 24.7823 62.934 25.5568 62.7611 26.246C62.5882 26.9352 62.4653 27.7147 62.3925 28.5845C62.3197 29.4543 62.2911 30.3701 62.3066 31.332C62.3222 32.2939 62.3662 33.3213 62.4388 34.4143C62.5113 35.5073 62.6608 36.5582 62.8872 37.567C63.1136 38.5758 63.2755 39.415 63.3729 40.0844C63.4703 40.7539 63.6863 41.5957 64.021 42.6097C64.3556 43.6238 64.6793 44.572 64.9921 45.4544C65.3048 46.3368 65.7479 47.2608 66.3214 48.2263C66.8948 49.1918 67.4957 50.0945 68.1238 50.9344C68.752 51.7743 69.4296 52.6059 70.1566 53.4291C70.8835 54.2524 71.6642 55.0104 72.4985 55.7032C73.3328 56.396 74.1573 57.0355 74.972 57.6216C75.7866 58.2077 76.7056 58.7911 77.7288 59.3716C78.7521 59.9522 79.8362 60.5005 80.9811 61.0166C82.126 61.5327 83.2784 61.9665 84.4382 62.318C85.598 62.6695 86.5193 62.9238 87.202 63.0807C87.8848 63.2377 88.5694 63.3643 89.2561 63.4604C89.9428 63.5566 90.6675 63.6267 91.4304 63.6709C92.1932 63.7151 92.9481 63.7061 93.6949 63.6439C94.4417 63.5817 95.1323 63.508 95.7666 63.4226C96.401 63.3373 97.0474 63.2294 97.7059 63.0992C98.3644 62.9689 98.9957 62.7961 99.5998 62.581C100.204 62.3658 100.989 61.961 101.954 61.3666C102.919 60.7723 103.807 60.0826 104.619 59.2975C105.431 58.5125 106.132 57.6736 106.724 56.7808C107.316 55.888 107.778 55.174 108.11 54.6389C108.442 54.1038 108.783 53.5599 109.132 53.0072C109.481 52.4545 109.896 51.8534 110.375 51.2041C110.854 50.5548 111.283 49.9295 111.663 49.3282C112.042 48.727 112.446 48.0956 112.875 47.4341C113.304 46.7725 113.687 46.1102 114.024 45.4469C114.36 44.7837 114.727 44.0475 115.124 43.2382C115.521 42.4289 115.841 41.6345 116.084 40.8549C116.326 40.0753 116.539 39.3358 116.722 38.6363C116.906 37.9368 117.144 37.0014 117.436 35.8302C117.729 34.6589 117.919 33.5139 118.006 32.3952C118.092 31.2765 118.135 30.2373 118.135 29.2775C118.134 28.3177 118.109 27.4903 118.058 26.795C118.006 26.0998 117.926 25.4309 117.816 24.7881C117.706 24.1454 117.527 23.4593 117.281 22.7299C117.035 22.0004 116.747 21.3491 116.418 20.776C116.09 20.2029 115.744 19.6401 115.383 19.0877C115.022 18.5353 114.538 17.838 113.933 16.9957C113.328 16.1533 112.677 15.4125 111.979 14.773C111.282 14.1336 110.466 13.5512 109.53 13.0258C108.595 12.5004 107.791 12.0881 107.117 11.789C106.443 11.4899 106.031 11.3189 105.88 11.276C105.73 11.2331 105.576 11.2088 105.42 11.2032C105.263 11.1975 105.109 11.2107 104.955 11.2426C104.802 11.2746 104.655 11.3244 104.514 11.3921C104.373 11.4598 104.242 11.5434 104.121 11.6429C104 11.7423 103.893 11.8548 103.8 11.9803C103.706 12.1058 103.629 12.2407 103.569 12.3849C103.508 12.5291 103.465 12.6785 103.441 12.8331C103.416 12.9876 103.411 13.1429 103.424 13.2988C103.437 13.4547 103.469 13.6068 103.519 13.755C103.569 13.9032 103.637 14.0432 103.721 14.1751C103.805 14.307 103.904 14.4269 104.017 14.5348C104.13 14.6427 104.255 14.7355 104.391 14.8131C104.527 14.8908 104.595 14.9296 104.595 14.9295Z" fill="#121212"/>
<path d="M104.262 27.049C104.262 27.049 104.33 27.2465 104.467 27.6414C104.603 28.0363 104.359 28.4834 103.735 28.9827C103.11 29.4821 103.121 29.5412 103.769 29.1602C104.416 28.7791 104.865 28.5125 105.116 28.3605C105.367 28.2084 105.593 28.0519 105.792 27.8909C105.992 27.73 106.161 27.5413 106.299 27.3251C106.437 27.1088 106.536 26.8761 106.598 26.6271C106.659 26.3782 106.68 26.1259 106.658 25.8703C106.637 25.6147 106.576 25.3691 106.474 25.1337C106.372 24.8982 106.236 24.6852 106.064 24.4945C105.893 24.3038 105.695 24.1455 105.472 24.0196C105.248 23.8937 105.011 23.8068 104.759 23.7588C104.507 23.7108 104.254 23.7043 104 23.7393C103.746 23.7743 103.504 23.8489 103.274 23.9632C103.045 24.0775 102.839 24.2254 102.658 24.4071C102.477 24.5887 102.33 24.7945 102.216 25.0244C102.102 25.2543 102.028 25.4964 101.994 25.7506C101.96 26.0048 101.967 26.2577 102.016 26.5096C102.065 26.7614 102.152 26.9988 102.279 27.2219C102.405 27.445 102.564 27.642 102.755 27.813C102.947 27.984 103.16 28.12 103.396 28.2209C103.632 28.3219 103.877 28.3826 104.133 28.4031C104.389 28.4235 104.641 28.4026 104.89 28.3403C105.138 28.278 105.371 28.1776 105.587 28.0392C105.803 27.9007 105.991 27.7314 106.151 27.5313C106.311 27.3311 106.436 27.1106 106.524 26.8697C106.612 26.6288 106.659 26.3802 106.666 26.1238C106.672 25.8674 106.638 25.6167 106.562 25.3716C106.486 25.1266 106.373 24.9 106.223 24.6919C106.074 24.4839 105.894 24.3052 105.686 24.1559C105.477 24.0066 105.25 23.8945 105.005 23.8196C104.76 23.7447 104.509 23.711 104.252 23.7183C103.996 23.7257 103.748 23.7738 103.507 23.8626C103.266 23.9515 103.146 23.9958 103.146 23.9957C103.147 23.9956 102.979 24.115 102.644 24.354C102.309 24.5929 101.918 24.9312 101.473 25.3689C101.027 25.8065 100.618 26.2978 100.245 26.8429C99.8716 27.3879 99.7352 28.0006 99.8356 28.6809C99.936 29.3612 100.186 30.0062 100.586 30.6158C100.986 31.2255 101.467 31.7481 102.028 32.1838C102.589 32.6196 103.213 32.9305 103.9 33.1168C104.587 33.303 105.294 33.3147 106.02 33.1519C106.746 32.9891 107.352 32.644 107.836 32.1165C108.32 31.589 108.61 30.9806 108.706 30.2912C108.802 29.6018 108.772 28.8626 108.615 28.0736C108.458 27.2846 108.305 26.6942 108.155 26.3024C108.006 25.9106 107.896 25.6447 107.825 25.5048C107.754 25.3649 107.667 25.2355 107.565 25.1167C107.462 24.9978 107.347 24.893 107.219 24.8021C107.091 24.7112 106.954 24.6369 106.808 24.5793C106.663 24.5217 106.512 24.4823 106.356 24.4613C106.201 24.4402 106.045 24.4381 105.889 24.4549C105.733 24.4717 105.581 24.5069 105.434 24.5605C105.287 24.6141 105.148 24.6846 105.017 24.772C104.887 24.8593 104.769 24.961 104.663 25.077C104.558 25.193 104.468 25.3199 104.393 25.4578C104.318 25.5958 104.261 25.7406 104.221 25.8924C104.182 26.0442 104.161 26.1985 104.159 26.3554C104.156 26.5123 104.173 26.6671 104.209 26.82C104.244 26.9728 104.262 27.0491 104.262 27.049Z" fill="#121212"/>
<path d="M78.4016 25.9037C78.4016 25.9037 78.524 26.0317 78.7688 26.2876C79.0136 26.5434 79.1471 27.0388 79.1694 27.7736C79.1917 28.5084 78.903 28.6033 78.3034 28.0583C77.7038 27.5132 77.5283 27.1945 77.7771 27.1021C78.0258 27.0098 78.2785 26.9332 78.535 26.8726C78.7916 26.8119 79.0318 26.7118 79.2555 26.5724C79.4793 26.433 79.6749 26.2615 79.8424 26.0579C80.0099 25.8544 80.1406 25.6294 80.2343 25.383C80.3281 25.1366 80.38 24.8816 80.3902 24.6182C80.4004 24.3548 80.3682 24.0966 80.2937 23.8437C80.2192 23.5908 80.1063 23.3564 79.955 23.1406C79.8036 22.9247 79.6218 22.7386 79.4094 22.5824C79.1971 22.4262 78.9653 22.3079 78.7142 22.2276C78.4631 22.1474 78.2057 22.1093 77.9421 22.1134C77.6785 22.1176 77.4225 22.1637 77.174 22.2518C76.9255 22.3398 76.6976 22.4653 76.4903 22.6281C76.2829 22.7909 76.107 22.9826 75.9625 23.2031C75.818 23.4236 75.7124 23.6614 75.6459 23.9165C75.5794 24.1716 75.5553 24.4306 75.5737 24.6936C75.5921 24.9566 75.652 25.2098 75.7535 25.4531C75.8549 25.6965 75.9925 25.9173 76.1663 26.1155C76.3401 26.3137 76.541 26.479 76.769 26.6114C76.9971 26.7437 77.2402 26.8362 77.4986 26.8888C77.7569 26.9414 78.0169 26.9514 78.2785 26.9188C78.5401 26.8861 78.7896 26.8126 79.0271 26.6981C79.2646 26.5837 79.4776 26.4343 79.6661 26.25C79.8546 26.0657 80.0088 25.8561 80.1286 25.6213C80.2484 25.3864 80.3276 25.1386 80.3661 24.8778C80.4046 24.617 80.4005 24.3569 80.3537 24.0974C80.307 23.8379 80.22 23.5927 80.0929 23.3618C79.9657 23.1309 79.805 22.9263 79.6108 22.748C79.4165 22.5698 79.1989 22.4272 78.9579 22.3203C78.7169 22.2134 78.4652 22.1478 78.2026 22.1235C77.9401 22.0991 77.809 22.0869 77.8092 22.0869C77.8095 22.0869 77.5965 22.1632 77.1702 22.3159C76.744 22.4686 76.1772 22.6909 75.4699 22.983C74.7626 23.2752 74.16 23.7673 73.6621 24.4595C73.1642 25.1517 72.8715 25.9543 72.7842 26.8671C72.6968 27.78 72.8404 28.5635 73.2148 29.2176C73.5893 29.8717 74.0379 30.3889 74.5607 30.7693C75.0835 31.1497 75.6211 31.5343 76.1737 31.9233C76.7263 32.3122 77.3123 32.5412 77.9317 32.6102C78.551 32.6792 79.1728 32.6762 79.7969 32.6013C80.4211 32.5265 81.0852 32.1898 81.7895 31.5913C82.4937 30.9928 82.961 30.1843 83.1914 29.1657C83.4217 28.1472 83.4776 27.2956 83.3589 26.6109C83.2402 25.9261 82.9748 25.297 82.5627 24.7233C82.1505 24.1497 81.8165 23.7405 81.5607 23.4957C81.3048 23.2509 81.1148 23.0799 80.9906 22.9826C80.8665 22.8854 80.7325 22.8044 80.5887 22.7397C80.4449 22.675 80.2955 22.6284 80.1403 22.6C79.9852 22.5716 79.829 22.5621 79.6716 22.5716C79.5142 22.5812 79.3602 22.6094 79.2096 22.6563C79.0591 22.7032 78.9163 22.7675 78.7813 22.8491C78.6464 22.9307 78.5232 23.0272 78.4117 23.1387C78.3002 23.2502 78.2036 23.3735 78.1221 23.5084C78.0405 23.6434 77.9762 23.7861 77.9293 23.9367C77.8824 24.0873 77.8542 24.2413 77.8447 24.3987C77.8352 24.5561 77.8447 24.7123 77.8731 24.8674C77.9015 25.0226 77.9481 25.172 78.0129 25.3158C78.0776 25.4596 78.1586 25.5936 78.2559 25.7177C78.3531 25.8418 78.4017 25.9038 78.4016 25.9037Z" fill="#121212"/>
<path d="M100.1 37.8758C100.1 37.8758 99.9047 38.1275 99.5147 38.6308C99.1248 39.1342 98.6244 39.7216 98.0136 40.3933C97.4027 41.0649 96.7052 41.6827 95.9211 42.2467C95.137 42.8108 94.3353 43.3555 93.5158 43.8809C92.6964 44.4063 91.9929 44.8047 91.4053 45.0762C90.8177 45.3477 90.1785 45.5468 89.4876 45.6735C88.7968 45.8002 88.035 45.8466 87.2021 45.8127C86.3693 45.7789 85.5916 45.6137 84.8691 45.3172C84.1467 45.0207 83.4462 44.6509 82.7677 44.2076C82.0893 43.7644 81.5446 43.21 81.1339 42.5444C80.7231 41.8787 80.4231 41.1969 80.2339 40.4989C80.0447 39.8009 79.8608 39.4673 79.6822 39.4982C79.5037 39.5291 79.4889 39.4524 79.6381 39.2681C79.7872 39.0838 79.903 38.8805 79.9855 38.6583C80.068 38.436 80.1129 38.2064 80.1201 37.9694C80.1273 37.7325 80.0965 37.5006 80.0276 37.2737C79.9588 37.0468 79.8555 36.8369 79.7178 36.6439C79.5802 36.4509 79.4153 36.2849 79.2232 36.146C79.0311 36.0071 78.8218 35.9024 78.5954 35.8321C78.369 35.7618 78.1373 35.7295 77.9003 35.7351C77.6633 35.7408 77.4334 35.7841 77.2106 35.8651C76.9878 35.9462 76.7838 36.0606 76.5985 36.2086C76.4133 36.3565 76.2565 36.5302 76.1282 36.7295C75.9998 36.9288 75.9067 37.1435 75.8487 37.3733C75.7908 37.6032 75.7711 37.8363 75.7895 38.0727C75.808 38.309 75.8638 38.5363 75.9568 38.7543C76.0497 38.9724 76.1751 39.1699 76.3329 39.3469C76.4906 39.5239 76.6725 39.671 76.8785 39.7883C77.0845 39.9057 77.3039 39.987 77.5365 40.0325C77.7692 40.0779 78.0031 40.0849 78.2381 40.0537C78.4731 40.0224 78.6969 39.9544 78.9097 39.8498C79.1224 39.7451 79.3128 39.6092 79.481 39.4421C79.6491 39.275 79.7862 39.0854 79.8922 38.8733C79.9982 38.6613 80.0676 38.4378 80.1003 38.203C80.133 37.9682 80.1274 37.7344 80.0835 37.5014C80.0395 37.2684 79.9595 37.0486 79.8435 36.8418C79.7274 36.6351 79.5814 36.4523 79.4054 36.2935C79.2295 36.1346 79.0327 36.008 78.8152 35.9137C78.5977 35.8193 78.3709 35.7622 78.1346 35.7422C77.8984 35.7222 77.6652 35.7405 77.4349 35.797C77.2047 35.8535 76.9895 35.9453 76.7894 36.0724C76.5892 36.1995 76.4892 36.2629 76.4894 36.2628C76.4896 36.2627 76.357 36.8852 76.0918 38.1304C75.8266 39.3756 75.8012 40.372 76.0156 41.1195C76.2301 41.867 76.5118 42.6326 76.8608 43.4162C77.2098 44.1999 77.7195 44.9734 78.3897 45.7369C79.06 46.5003 79.8202 47.1497 80.6704 47.6849C81.5205 48.2201 82.2415 48.6303 82.8335 48.9156C83.4254 49.2008 84.024 49.4199 84.6292 49.5726C85.2345 49.7254 86.1483 49.8137 87.3707 49.8374C88.5931 49.861 89.6084 49.7837 90.4168 49.6054C91.2251 49.4271 92.1 49.1094 93.0413 48.6525C93.9826 48.1956 94.8905 47.6784 95.7647 47.1009C96.639 46.5235 97.5367 45.8894 98.4578 45.1985C99.3788 44.5076 100.191 43.7611 100.893 42.9591C101.595 42.1571 102.145 41.5072 102.542 41.0092C102.939 40.5113 103.177 40.196 103.258 40.0632C103.338 39.9305 103.402 39.7901 103.448 39.642C103.494 39.4939 103.522 39.3424 103.532 39.1875C103.542 39.0326 103.532 38.8787 103.505 38.726C103.477 38.5733 103.431 38.4262 103.368 38.2846C103.304 38.1429 103.225 38.011 103.129 37.8887C103.034 37.7664 102.925 37.6573 102.803 37.5614C102.681 37.4655 102.549 37.3856 102.408 37.3217C102.266 37.2578 102.119 37.2118 101.966 37.1836C101.814 37.1554 101.66 37.1459 101.505 37.1551C101.35 37.1643 101.199 37.1918 101.05 37.2378C100.902 37.2838 100.761 37.3468 100.629 37.427C100.496 37.5071 100.374 37.6019 100.264 37.7115C100.154 37.8212 100.1 37.8758 100.1 37.8758Z" fill="#121212"/>
<path d="M160.224 61.9774C160.224 61.9774 159.485 61.7836 158.007 61.3959C156.529 61.0083 155.097 60.6309 153.713 60.2637C152.329 59.8965 150.829 59.4624 149.213 58.9615C147.597 58.4607 145.919 57.8605 144.177 57.1611C142.435 56.4618 140.772 55.8188 139.187 55.2324C137.602 54.6459 136.208 54.1237 135.003 53.6659C133.799 53.2081 132.83 52.7965 132.098 52.4312C131.365 52.066 130.692 51.6806 130.078 51.275C129.464 50.8695 129.091 50.6469 128.96 50.6073C128.829 50.5677 128.695 50.5501 128.558 50.5545C128.421 50.5589 128.288 50.5851 128.16 50.6329C128.031 50.6808 127.914 50.748 127.808 50.8343C127.701 50.9207 127.611 51.0218 127.538 51.1376C127.465 51.2534 127.412 51.3779 127.38 51.5111C127.347 51.6442 127.337 51.779 127.349 51.9155C127.361 52.052 127.394 52.1831 127.449 52.3087C127.504 52.4343 127.577 52.5479 127.669 52.6494C127.761 52.7509 127.867 52.8351 127.986 52.902C128.106 52.9688 128.233 53.0148 128.368 53.0399C128.503 53.0651 128.638 53.0681 128.773 53.0489C128.909 53.0297 129.038 52.9894 129.161 52.9279C129.283 52.8664 129.392 52.7869 129.489 52.6895C129.585 52.5922 129.664 52.4819 129.724 52.3589C129.784 52.2358 129.823 52.1064 129.841 51.9705C129.859 51.8346 129.854 51.6995 129.828 51.565C129.801 51.4306 129.754 51.3039 129.686 51.185C129.618 51.0661 129.533 50.9611 129.43 50.8701C129.328 50.7791 129.214 50.7069 129.087 50.6534C128.961 50.5999 128.83 50.5679 128.693 50.5575C128.557 50.5471 128.422 50.5588 128.289 50.5925C128.156 50.6263 128.032 50.6803 127.917 50.7547C127.802 50.8291 127.702 50.9199 127.617 51.0272C127.531 51.1344 127.466 51.2525 127.419 51.3813C127.372 51.5102 127.348 51.6431 127.345 51.7801C127.342 51.9171 127.36 52.051 127.401 52.1818C127.442 52.3125 127.503 52.4334 127.584 52.5442C127.664 52.6551 127.76 52.7502 127.872 52.8296C127.984 52.9089 128.039 52.9486 128.039 52.9485C128.039 52.9485 128.382 53.1054 129.069 53.4192C129.755 53.7331 130.494 54.0489 131.286 54.3666C132.077 54.6844 133.075 55.0813 134.279 55.5574C135.483 56.0335 136.863 56.5723 138.421 57.1737C139.979 57.775 141.648 58.4504 143.43 59.1996C145.212 59.9489 146.916 60.5994 148.543 61.1511C150.169 61.7028 151.664 62.192 153.028 62.6187C154.392 63.0453 155.801 63.494 157.255 63.9646C158.709 64.4353 159.492 64.6798 159.603 64.6982C159.714 64.7166 159.826 64.7214 159.938 64.7127C160.051 64.7039 160.161 64.6818 160.268 64.6464C160.375 64.611 160.476 64.5633 160.571 64.5033C160.667 64.4433 160.754 64.3727 160.832 64.2916C160.91 64.2105 160.978 64.1212 161.035 64.0237C161.091 63.9262 161.135 63.8234 161.167 63.7152C161.199 63.607 161.217 63.4965 161.222 63.3839C161.227 63.2712 161.218 63.1596 161.196 63.0491C161.173 62.9386 161.138 62.8323 161.09 62.7303C161.042 62.6283 160.983 62.5335 160.912 62.446C160.84 62.3585 160.76 62.2807 160.67 62.2127C160.58 62.1447 160.483 62.0885 160.38 62.044C160.276 61.9996 160.224 61.9773 160.224 61.9774Z" fill="#121212"/>
<path d="M156.742 65.3377C156.742 65.3377 156.09 64.9958 154.785 64.312C153.479 63.6282 151.865 62.9037 149.943 62.1386C148.02 61.3735 146.002 60.653 143.888 59.9771C141.774 59.3013 139.605 58.644 137.382 58.0053C135.159 57.3667 132.898 56.7175 130.597 56.0579C128.296 55.3983 126.19 54.8042 124.278 54.2756C122.367 53.747 120.718 53.2996 119.33 52.9334C117.943 52.5672 116.849 52.2692 116.047 52.0395C115.245 51.8098 114.705 52.0308 114.425 52.7025C114.146 53.3741 114.071 53.6996 114.199 53.6789C114.328 53.6582 114.45 53.6174 114.565 53.5567C114.681 53.496 114.783 53.4184 114.873 53.3241C114.963 53.2297 115.035 53.1235 115.091 53.0053C115.146 52.8872 115.18 52.7634 115.195 52.6339C115.209 52.5044 115.203 52.3759 115.175 52.2486C115.147 52.1212 115.1 52.0016 115.033 51.8898C114.966 51.7779 114.883 51.6797 114.784 51.5951C114.685 51.5104 114.575 51.4438 114.454 51.3953C114.333 51.3467 114.208 51.3187 114.078 51.3113C113.947 51.3039 113.82 51.3175 113.694 51.352C113.568 51.3865 113.451 51.4402 113.343 51.513C113.235 51.5859 113.142 51.6741 113.062 51.7776C112.983 51.8811 112.923 51.9946 112.881 52.118C112.839 52.2414 112.818 52.3682 112.817 52.4986C112.817 52.6289 112.838 52.7558 112.879 52.8794C112.92 53.0031 112.98 53.1168 113.059 53.2208C113.137 53.3247 113.23 53.4134 113.338 53.4868C113.446 53.5603 113.562 53.6146 113.688 53.6498C113.813 53.6849 113.941 53.6992 114.071 53.6925C114.201 53.6858 114.327 53.6584 114.448 53.6105C114.569 53.5626 114.68 53.4966 114.779 53.4125C114.879 53.3283 114.962 53.2305 115.03 53.119C115.097 53.0075 115.145 52.8882 115.174 52.761C115.202 52.6338 115.209 52.5054 115.195 52.3758C115.182 52.2462 115.148 52.1222 115.093 52.0038C115.039 51.8854 114.967 51.7788 114.877 51.6839C114.788 51.5891 114.686 51.511 114.571 51.4497C114.456 51.3883 114.334 51.347 114.206 51.3256C114.077 51.3042 114.013 51.2935 114.013 51.2935C114.013 51.2935 114.067 51.7101 114.176 52.5434C114.285 53.3768 114.74 53.8717 115.543 54.0283C116.345 54.1848 117.435 54.4502 118.812 54.8245C120.189 55.1988 121.828 55.6563 123.729 56.197C125.63 56.7376 127.727 57.3471 130.021 58.0254C132.315 58.7037 134.559 59.372 136.752 60.0303C138.945 60.6885 141.067 61.3641 143.118 62.0569C145.168 62.7498 147.102 63.4825 148.92 64.2551C150.738 65.0277 152.282 65.7873 153.551 66.5339C154.821 67.2805 155.505 67.6739 155.603 67.714C155.702 67.7541 155.804 67.7818 155.909 67.7972C156.015 67.8125 156.12 67.815 156.226 67.8047C156.332 67.7944 156.436 67.7715 156.536 67.7361C156.636 67.7008 156.731 67.6539 156.82 67.5955C156.909 67.5371 156.99 67.469 157.062 67.391C157.135 67.313 157.197 67.2274 157.249 67.1344C157.3 67.0413 157.34 66.9434 157.368 66.8407C157.396 66.738 157.411 66.6334 157.414 66.5269C157.416 66.4205 157.406 66.3153 157.383 66.2114C157.36 66.1074 157.325 66.0078 157.278 65.9124C157.23 65.8169 157.172 65.7286 157.104 65.6472C157.035 65.5659 156.958 65.494 156.871 65.4314C156.785 65.3689 156.742 65.3377 156.742 65.3377Z" fill="#121212"/>
<path d="M61.9415 24.6262C61.9415 24.6262 61.374 24.2701 60.2388 23.558C59.1037 22.8459 57.8642 22.1382 56.5202 21.4348C55.1761 20.7313 53.8064 20.0394 52.4109 19.3589C51.0154 18.6784 49.5535 17.9819 48.0251 17.2693C46.4967 16.5567 45.1234 15.9098 43.905 15.3285C42.6867 14.7472 41.6128 14.2024 40.6833 13.6942C39.7539 13.186 38.9576 12.7246 38.2944 12.31C37.6312 11.8954 36.9425 11.4457 36.2282 10.9609C35.5139 10.476 34.9478 10.1568 34.5298 10.0032C34.1118 9.84959 33.8297 9.77159 33.6833 9.7692C33.5369 9.76681 33.3939 9.78786 33.2545 9.83234C33.115 9.87682 32.9862 9.9424 32.8682 10.0291C32.7503 10.1158 32.6492 10.219 32.5651 10.3389C32.481 10.4587 32.4182 10.5888 32.3767 10.7292C32.3352 10.8696 32.3173 11.013 32.3228 11.1593C32.3284 11.3056 32.3571 11.4472 32.4091 11.5841C32.4611 11.721 32.5335 11.8459 32.6265 11.9591C32.7195 12.0722 32.828 12.1675 32.9523 12.245C33.0765 12.3225 33.2098 12.3782 33.3523 12.4119C33.4947 12.4457 33.6388 12.4559 33.7846 12.4424C33.9304 12.429 34.0702 12.3926 34.2041 12.3333C34.3379 12.2739 34.4588 12.1948 34.5667 12.0959C34.6746 11.9969 34.7639 11.8833 34.8346 11.7551C34.9053 11.6269 34.9536 11.4907 34.9796 11.3466C35.0056 11.2026 35.008 11.0581 34.9866 10.9133C34.9653 10.7684 34.9214 10.6308 34.8549 10.5003C34.7884 10.3699 34.7028 10.2535 34.5982 10.1511C34.4935 10.0487 34.3753 9.96568 34.2434 9.90207C34.1115 9.83846 33.973 9.79756 33.8277 9.77939C33.6824 9.76121 33.538 9.76671 33.3946 9.79587C33.2511 9.82504 33.116 9.87635 32.9894 9.9498C32.8627 10.0232 32.7511 10.115 32.6546 10.225C32.558 10.3351 32.4815 10.4577 32.4251 10.5928C32.3688 10.7279 32.3354 10.8685 32.3252 11.0146C32.3149 11.1606 32.3282 11.3045 32.3651 11.4461C32.402 11.5878 32.4606 11.7199 32.5408 11.8424C32.621 11.9649 32.7186 12.0714 32.8337 12.1618C32.9489 12.2523 33.0754 12.322 33.2134 12.371C33.3514 12.4199 33.4203 12.4444 33.4202 12.4444C33.42 12.4444 33.5036 12.4714 33.671 12.5256C33.8384 12.5798 34.2926 12.7908 35.0339 13.1587C35.7751 13.5266 36.5021 13.8957 37.2148 14.2662C37.9276 14.6367 38.7648 15.0706 39.7265 15.5681C40.6882 16.0656 41.7751 16.6179 42.9871 17.2251C44.1991 17.8322 45.554 18.5045 47.0516 19.2419C48.5492 19.9793 49.9726 20.704 51.3216 21.4159C52.6707 22.1278 53.9669 22.8445 55.2101 23.5662C56.4534 24.2878 57.616 25.0436 58.6981 25.8334C59.7801 26.6233 60.3727 27.0447 60.476 27.0978C60.5793 27.1508 60.6874 27.1907 60.8003 27.2175C60.9133 27.2443 61.0278 27.2572 61.1439 27.2562C61.26 27.2552 61.3742 27.2403 61.4867 27.2115C61.5992 27.1827 61.7066 27.1409 61.8089 27.0861C61.9112 27.0312 62.0055 26.9649 62.0917 26.8872C62.1779 26.8095 62.2535 26.7225 62.3187 26.6264C62.3838 26.5303 62.4364 26.4278 62.4766 26.3189C62.5168 26.21 62.5434 26.0979 62.5564 25.9825C62.5694 25.8671 62.5684 25.7519 62.5534 25.6368C62.5383 25.5217 62.5098 25.41 62.4677 25.3018C62.4255 25.1937 62.3711 25.0921 62.3043 24.9971C62.2375 24.9022 62.1603 24.8166 62.0728 24.7404C61.9852 24.6642 61.9415 24.6261 61.9415 24.6262Z" fill="#121212"/>
<path d="M58.9789 29.0077C58.9789 29.0077 58.4336 28.7573 57.3429 28.2566C56.2522 27.7558 55.1617 27.2735 54.0714 26.8094C52.9811 26.3454 51.889 25.9222 50.795 25.5398C49.7011 25.1574 48.5514 24.818 47.3459 24.5216C46.1404 24.2252 44.9335 23.9157 43.725 23.5931C42.5165 23.2705 41.3804 22.9775 40.3168 22.714C39.2531 22.4505 38.2939 22.1851 37.4391 21.9178C36.5842 21.6506 35.7761 21.3976 35.0148 21.159C34.2536 20.9203 33.5581 20.6907 32.9285 20.4702C32.2989 20.2497 31.5352 19.9869 30.6374 19.6819C29.7396 19.3769 28.946 19.1027 28.2566 18.8592C27.5672 18.6157 27.1367 18.4951 26.9653 18.4974C26.7938 18.4997 26.6272 18.5293 26.4655 18.5862C26.3037 18.6432 26.1553 18.7244 26.0202 18.83C25.8851 18.9356 25.7704 19.06 25.6761 19.2032C25.5817 19.3464 25.5128 19.5009 25.4691 19.6667C25.4255 19.8325 25.4094 20.001 25.421 20.1721C25.4326 20.3431 25.4712 20.5079 25.5368 20.6663C25.6024 20.8247 25.6915 20.9685 25.8043 21.0977C25.917 21.2269 26.0475 21.3347 26.1956 21.4211C26.3437 21.5076 26.5017 21.5681 26.6696 21.6027C26.8376 21.6373 27.0066 21.6442 27.1768 21.6233C27.347 21.6025 27.5095 21.555 27.6641 21.4809C27.8187 21.4069 27.9575 21.31 28.0804 21.1904C28.2033 21.0708 28.3038 20.9348 28.3821 20.7822C28.4604 20.6296 28.5122 20.4686 28.5377 20.299C28.5632 20.1294 28.5609 19.9602 28.5308 19.7914C28.5008 19.6226 28.4446 19.463 28.3623 19.3126C28.2799 19.1622 28.1757 19.0289 28.0496 18.9127C27.9235 18.7964 27.7822 18.7034 27.6256 18.6335C27.469 18.5636 27.3054 18.5206 27.1347 18.5043C26.964 18.4881 26.7952 18.4996 26.6282 18.5387C26.4613 18.5778 26.305 18.6426 26.1592 18.733C26.0135 18.8233 25.8861 18.9346 25.7769 19.0668C25.6676 19.199 25.5824 19.3452 25.5211 19.5053C25.4598 19.6654 25.4256 19.8312 25.4187 20.0025C25.4117 20.1738 25.4323 20.3418 25.4805 20.5064C25.5286 20.671 25.6017 20.8235 25.6999 20.9641C25.798 21.1047 25.916 21.226 26.0539 21.3279C26.1918 21.4298 26.3424 21.507 26.5057 21.5595C26.6689 21.6121 26.7504 21.6383 26.7503 21.6383C26.7501 21.6383 27.0346 21.707 27.6037 21.8445C28.1728 21.982 28.9154 22.1559 29.8315 22.3663C30.7475 22.5767 31.538 22.7698 32.2028 22.9457C32.8676 23.1215 33.5849 23.304 34.3548 23.4931C35.1246 23.6822 35.9579 23.894 36.8546 24.1284C37.7513 24.3629 38.7187 24.602 39.757 24.8457C40.7952 25.0895 41.9207 25.3945 43.1335 25.7606C44.3463 26.1267 45.5157 26.467 46.6417 26.7815C47.7678 27.0959 48.8439 27.444 49.87 27.8258C50.8962 28.2075 51.928 28.6447 52.9655 29.1373C54.0029 29.6299 55.0491 30.1622 56.1041 30.7343C57.1591 31.3063 57.7412 31.6119 57.8506 31.6509C57.9599 31.69 58.0724 31.7153 58.1879 31.7271C58.3034 31.7388 58.4186 31.7365 58.5336 31.7203C58.6486 31.704 58.7599 31.6742 58.8677 31.6309C58.9754 31.5876 59.0764 31.532 59.1706 31.4642C59.2649 31.3964 59.3496 31.3183 59.4249 31.2298C59.5002 31.1414 59.5638 31.0453 59.6157 30.9414C59.6676 30.8376 59.7063 30.729 59.7319 30.6157C59.7575 30.5025 59.7691 30.3878 59.7668 30.2717C59.7645 30.1556 59.7484 30.0415 59.7184 29.9293C59.6883 29.8172 59.6454 29.7102 59.5894 29.6085C59.5334 29.5068 59.466 29.4132 59.3873 29.3278C59.3086 29.2425 59.2209 29.1677 59.124 29.1037C59.0272 29.0396 58.9789 29.0076 58.9789 29.0077Z" fill="#121212"/>
<path d="M24.0036 8.5956C24.0036 8.5956 24.0965 8.49106 24.2823 8.28197C24.468 8.07288 24.8223 7.72554 25.345 7.23995C25.8676 6.75435 26.4383 6.60295 27.0571 6.78572C27.6758 6.9685 28.0182 7.41023 28.0841 8.11091C28.15 8.81158 28.0968 9.52021 27.9243 10.2368C27.7519 10.9533 27.5529 11.6966 27.3274 12.4665C27.1019 13.2365 26.8227 13.8988 26.4896 14.4536C26.1566 15.0084 25.7828 15.6197 25.3684 16.2877C24.954 16.9556 24.5417 17.5817 24.1315 18.1659C23.7212 18.7502 23.2601 19.3943 22.7481 20.0985C22.2362 20.8026 21.6887 21.3544 21.1057 21.7536C20.5226 22.1529 19.903 22.1323 19.2468 21.6919C18.5906 21.2514 18.0622 20.7309 17.6618 20.1304C17.2613 19.5298 16.875 18.9433 16.5029 18.3708C16.1308 17.7983 15.8011 17.2317 15.5139 16.6711C15.2267 16.1105 14.9779 15.4883 14.7674 14.8045C14.5569 14.1208 14.458 13.4362 14.4705 12.7508C14.483 12.0655 14.4897 11.4053 14.4903 10.7703C14.491 10.1352 14.52 9.47191 14.5773 8.78029C14.6347 8.08866 14.7717 7.43563 14.9885 6.8212C15.2053 6.20676 15.5187 6.16406 15.9285 6.6931C16.3384 7.22214 16.7434 7.93553 17.1436 8.83327C17.5437 9.73101 17.8709 10.2416 18.1252 10.3652C18.3795 10.4887 18.6468 10.5684 18.9272 10.6043C19.2076 10.6401 19.4864 10.6303 19.7636 10.5747C20.0407 10.5192 20.3018 10.4209 20.5467 10.2797C20.7916 10.1386 21.0076 9.96202 21.1947 9.75006C21.3817 9.5381 21.53 9.30182 21.6396 9.04123C21.7491 8.78065 21.8142 8.50938 21.8348 8.22745C21.8555 7.94552 21.8305 7.66767 21.7601 7.39392C21.6896 7.12016 21.5772 6.86482 21.423 6.6279C21.2688 6.39098 21.0808 6.18488 20.859 6.00961C20.6372 5.83433 20.3933 5.69905 20.1271 5.60377C19.861 5.50848 19.5866 5.45819 19.304 5.45287C19.0213 5.44756 18.7452 5.48751 18.4757 5.57273C18.2062 5.65794 17.9573 5.78396 17.7291 5.95078C17.5009 6.1176 17.3053 6.31649 17.1423 6.54745C16.9793 6.77841 16.8574 7.02934 16.7767 7.30026C16.696 7.57118 16.6606 7.84789 16.6706 8.1304C16.6806 8.4129 16.7355 8.68642 16.8352 8.95094C16.9349 9.21546 17.0742 9.45714 17.2531 9.67598C17.4321 9.89482 17.6413 10.0794 17.8807 10.2296C18.1202 10.3799 18.3773 10.4879 18.6522 10.5539C18.9271 10.6198 19.2054 10.6401 19.4869 10.6148C19.7685 10.5895 20.0386 10.5199 20.2973 10.406C20.5561 10.2921 20.7898 10.1399 20.9986 9.94936C21.2075 9.75882 21.3804 9.53993 21.5175 9.29269C21.6545 9.04545 21.7485 8.7828 21.7994 8.50474C21.8503 8.22668 21.8555 7.94776 21.815 7.668C21.7745 7.38823 21.6904 7.12226 21.5626 6.87008C21.4349 6.6179 21.2702 6.39272 21.0686 6.19453C20.8671 5.99634 20.7664 5.89732 20.7666 5.89747C20.7668 5.89763 20.8283 5.76637 20.951 5.50369C21.0738 5.24102 20.8379 4.73761 20.2434 3.99344C19.6489 3.24928 19.0538 2.70798 18.4581 2.36955C17.8623 2.03112 17.2621 1.77422 16.6575 1.59887C16.0529 1.42351 15.4033 1.34077 14.7087 1.35064C14.0141 1.36051 13.3288 1.55109 12.653 1.92237C11.9772 2.29365 11.4446 2.77693 11.0552 3.37222C10.6658 3.96751 10.3204 4.73546 10.0191 5.67609C9.71774 6.61672 9.51585 7.5935 9.41342 8.60645C9.311 9.61939 9.26008 10.4529 9.26067 11.107C9.26125 11.7611 9.27653 12.4388 9.3065 13.1401C9.33647 13.8413 9.40734 14.5021 9.51909 15.1224C9.63085 15.7427 9.79241 16.3472 10.0038 16.9359C10.2152 17.5247 10.5485 18.2163 11.0036 19.0109C11.4588 19.8054 11.941 20.5874 12.4504 21.357C12.9597 22.1266 13.4543 22.9175 13.934 23.7298C14.4137 24.542 14.9072 25.265 15.4143 25.8987C15.9215 26.5323 16.6671 27.0092 17.6511 27.3295C18.635 27.6497 19.4537 27.7252 20.1072 27.5562C20.7606 27.3871 21.3866 27.2167 21.985 27.045C22.5834 26.8733 23.1763 26.6144 23.7636 26.2681C24.3509 25.9218 24.9488 25.4001 25.5573 24.7028C26.1658 24.0055 26.6396 23.3738 26.9788 22.8078C27.318 22.2418 27.763 21.5406 28.3138 20.7043C28.8647 19.868 29.3505 19.1424 29.7713 18.5275C30.1921 17.9127 30.5503 17.2668 30.8457 16.5899C31.1412 15.9129 31.4445 15.2212 31.7554 14.5147C32.0663 13.8082 32.2862 13.1241 32.415 12.4623C32.5437 11.8005 32.6537 11.0831 32.7449 10.31C32.836 9.53695 32.8626 8.83472 32.8244 8.20332C32.7863 7.57192 32.6352 6.932 32.371 6.28356C32.1068 5.63512 31.5855 4.96255 30.8069 4.26584C30.0284 3.56914 29.1965 3.14427 28.3112 2.99125C27.4259 2.83822 26.662 2.8098 26.0196 2.90597C25.3772 3.00214 24.7218 3.22019 24.0534 3.5601C23.3851 3.90002 22.7978 4.29939 22.2915 4.75821C21.7853 5.21703 21.4463 5.55645 21.2744 5.77649C21.1026 5.99653 20.9743 6.17214 20.8895 6.30334C20.8047 6.43453 20.7368 6.57397 20.6858 6.72165C20.6349 6.86932 20.6023 7.02096 20.5882 7.17654C20.5741 7.33212 20.5788 7.48713 20.6023 7.64157C20.6258 7.79602 20.6675 7.9454 20.7273 8.08972C20.7871 8.23405 20.8633 8.36913 20.9559 8.49495C21.0484 8.62077 21.1547 8.73368 21.2748 8.83369C21.3948 8.93369 21.525 9.01788 21.6655 9.08626C21.806 9.15463 21.9526 9.20521 22.1053 9.23798C22.258 9.27075 22.4125 9.28477 22.5687 9.28003C22.7248 9.2753 22.8781 9.25194 23.0286 9.20998C23.1791 9.16801 23.3224 9.10864 23.4584 9.03188C23.5945 8.95512 23.7194 8.86319 23.8331 8.7561C23.9468 8.649 24.0036 8.59555 24.0036 8.5956Z" fill="#121212"/>
</svg>
